<svg width="1920" height="4834" viewBox="0 0 1920 4834" fill="none" xmlns="http://www.w3.org/2000/svg">
<g filter="url(#filter0_d)">
<path d="M-17 1C-13.6454 4.98888 -10.9937 9.10541 -8.91702 13.2219C11.6259 53.4937 -20.4185 99.3498 1.11481 142.813C15.7472 172.394 46.929 193.073 79.8999 195.147C117.312 197.508 158.621 178.457 190.282 198.529C225.809 221.122 221.783 275.946 249.419 307.665C272.901 334.662 313.731 338.491 349.034 332.492C384.337 326.493 418.458 312.707 454.209 311.782C576.572 308.622 539.703 462.37 624.047 508.226C657.913 526.639 700.628 518.725 736.25 533.34C790.467 555.646 811.393 621.893 813.055 680.418C814.684 738.975 803.949 799.382 822.479 854.94C841.01 910.497 900.018 941.418 957.43 929.579C1003.44 920.102 1085.29 847.568 1158.77 773.63C1207 720.466 1217 697 1217 697L1245.45 720.466C1221.8 746.187 1207.52 763.802 1209.41 765.684C1211.29 767.567 1228.93 753.303 1254.68 729.689L1282.5 757C1274.1 767.339 1264.1 777.14 1255.57 788.086C1176.21 889.531 1098.83 1010.51 1168.23 1024.2C1219.47 1034.31 1246.08 1000.71 1292.83 1017.85C1366.12 1044.71 1364.74 1114.54 1437.78 1121.52C1485.06 1126.02 1521.29 1080.87 1542.22 1038.27C1554 1014.21 1565.38 988.04 1580.81 966.373C1592.73 949.651 1607.2 935.642 1626.14 927.409C1676.14 905.742 1740.58 933.409 1785.41 902.455C1816.65 880.851 1825.41 838.792 1826.81 800.85C1828.03 767.312 1825.79 732.242 1836.94 701.064C1838.38 696.98 1840.04 692.959 1841.99 689.034C1855.34 662.037 1887.64 642.093 1915.41 646.752C1922.63 647.933 1929.5 650.741 1935.69 655.591V1H-17Z" fill="#22394D"/>
<path d="M-8.47109 12.9958C-10.4221 9.12839 -12.8764 5.26171 -15.9375 1.5H1935.19V654.579C1929.14 650.052 1922.47 647.401 1915.49 646.258C1901.46 643.905 1886.33 647.77 1873.04 655.591C1859.75 663.414 1848.26 675.219 1841.54 688.812C1839.58 692.757 1837.91 696.797 1836.47 700.898C1830.87 716.55 1828.64 733.165 1827.65 750.043C1827.07 759.982 1826.92 770.048 1826.77 780.064C1826.67 787.03 1826.56 793.973 1826.31 800.832C1824.91 838.76 1816.16 880.588 1785.12 902.044C1762.86 917.419 1735.7 918.254 1707.72 917.915C1705.32 917.885 1702.92 917.848 1700.51 917.81C1674.89 917.408 1648.91 917 1625.95 926.951L1626.14 927.409L1625.95 926.951C1606.89 935.231 1592.35 949.314 1580.4 966.083C1567.82 983.748 1557.93 1004.4 1548.34 1024.43C1546.14 1029.02 1543.96 1033.57 1541.77 1038.05C1531.32 1059.32 1517.06 1081.2 1499.54 1097.19C1482.02 1113.18 1461.28 1123.26 1437.82 1121.03C1401.51 1117.55 1383.71 1098.49 1365.78 1076.82C1364.56 1075.34 1363.33 1073.85 1362.1 1072.35C1345.3 1051.89 1327.28 1029.94 1293 1017.38C1269.47 1008.75 1251.01 1012.91 1232.09 1017.9C1231.06 1018.18 1230.03 1018.45 1228.99 1018.73C1211.04 1023.51 1192.43 1028.46 1168.32 1023.71C1159.73 1022.01 1153.45 1018.66 1149.17 1013.94C1144.89 1009.23 1142.56 1003.09 1141.94 995.751C1140.69 981.036 1146.28 961.561 1156.57 939.258C1177.14 894.679 1216.29 839.113 1255.97 788.394L1255.97 788.393C1260.22 782.936 1264.84 777.762 1269.46 772.651C1269.88 772.182 1270.3 771.715 1270.72 771.247C1274.91 766.617 1279.06 762.022 1282.89 757.315L1283.18 756.962L1282.85 756.643L1255.03 729.332L1254.69 729L1254.34 729.32C1241.47 741.124 1230.63 750.585 1222.78 756.857C1218.85 759.995 1215.69 762.325 1213.39 763.75C1212.24 764.465 1211.33 764.938 1210.67 765.176C1210.34 765.296 1210.09 765.345 1209.93 765.35C1209.82 765.353 1209.78 765.337 1209.76 765.33C1209.76 765.315 1209.74 765.269 1209.74 765.163C1209.75 764.999 1209.8 764.758 1209.92 764.425C1210.15 763.763 1210.63 762.856 1211.34 761.706C1212.77 759.414 1215.1 756.25 1218.24 752.327C1224.52 744.486 1234 733.662 1245.81 720.805L1246.17 720.416L1245.76 720.081L1217.32 696.614L1216.8 696.189L1216.54 696.804L1216.54 696.807L1216.53 696.818L1216.51 696.866C1216.49 696.91 1216.46 696.977 1216.42 697.068C1216.34 697.248 1216.21 697.522 1216.03 697.891C1215.66 698.629 1215.09 699.745 1214.25 701.254C1212.56 704.27 1209.81 708.852 1205.56 715.097C1197.05 727.586 1182.5 746.723 1158.41 773.286C1121.67 810.246 1082.86 846.846 1047.48 875.388C1029.79 889.66 1012.97 901.911 997.705 911.184C982.432 920.461 968.748 926.737 957.329 929.09C900.144 940.882 841.397 910.078 822.954 854.781C813.714 827.08 811.766 798.153 811.929 768.806C811.995 756.925 812.409 744.958 812.823 732.977C813.43 715.408 814.039 697.809 813.555 680.404C812.722 651.093 807.067 619.83 794.815 593.089C782.563 566.344 763.698 544.092 736.441 532.878L736.44 532.877C719.964 526.118 701.983 524.158 684.139 522.214C682.606 522.047 681.075 521.88 679.545 521.71C660.175 519.559 641.122 516.94 624.286 507.787C603.325 496.39 589.874 478.283 579.582 457.52C572.334 442.897 566.671 427 561.05 411.222C558.682 404.574 556.321 397.947 553.852 391.446C545.539 369.55 536.009 349.104 520.856 334.337C505.68 319.546 484.906 310.489 454.196 311.282C436.264 311.746 418.753 315.435 401.334 319.749C397.096 320.798 392.865 321.884 388.635 322.97C375.461 326.352 362.293 329.732 348.95 331.999C313.699 337.989 273.102 334.131 249.796 307.337L249.796 307.337C237.733 293.491 231.736 275.215 225.776 257.051C224.95 254.533 224.124 252.017 223.284 249.515C216.397 229.028 208.478 209.509 190.55 198.107L190.55 198.107C174.569 187.976 156.179 187.738 137.196 189.699C131.726 190.264 126.176 191.016 120.617 191.769C116.547 192.32 112.472 192.872 108.419 193.352C98.8006 194.491 89.2392 195.235 79.9314 194.648C47.1381 192.585 16.1157 172.011 1.56298 142.591L1.56284 142.591C-9.12775 121.013 -6.5302 98.8315 -3.7764 76.8829C-3.73735 76.5717 -3.69828 76.2606 -3.65921 75.9495C-0.94886 54.3682 1.73433 33.0031 -8.47109 12.9958Z" stroke="black"/>
</g>
<path d="M1374.65 649.27C1374.65 649.27 1372.82 651.249 1369.47 654.855C1369.18 655.206 1368.8 655.589 1368.48 656.003C1357.07 668.417 1331.23 697.137 1300.81 733.356C1297.52 737.281 1294.17 741.302 1290.78 745.386C1289.34 747.078 1287.91 748.833 1286.47 750.556C1284.14 753.428 1281.77 756.332 1279.37 759.204L1252.95 732.813C1227.2 756.427 1209.57 770.692 1207.68 768.809C1205.8 766.926 1220.08 749.311 1243.72 723.591L1225.54 705.434C1228.1 702.689 1230.62 699.977 1233.15 697.264C1234.65 695.605 1236.18 693.914 1237.65 692.318C1241.26 688.361 1244.81 684.564 1248.19 680.798C1285.83 639.537 1311.04 609.988 1311.04 609.988C1311.04 609.988 1324.36 618.221 1338.8 627.156C1343.21 629.836 1347.68 632.613 1351.96 635.261C1354.17 636.633 1356.34 637.974 1358.35 639.218C1358.8 639.474 1359.21 639.761 1359.63 640.016C1364.39 642.952 1368.42 645.409 1371.1 647.068C1371.58 647.387 1371.99 647.675 1372.38 647.866C1373.85 648.76 1374.65 649.27 1374.65 649.27Z" fill="url(#paint0_linear)"/>
<path d="M1311.04 540.135C1311.04 540.135 1219.09 542.655 1215.67 543.772C1212.25 544.921 1148 587.586 1094.2 655.493L1243.4 644.388L1311.04 540.135Z" fill="url(#paint1_linear)"/>
<path d="M1226.98 659.578C1221.9 669.119 1218.32 676.395 1216.53 680.639L1295.99 760.002C1300.24 758.183 1307.55 754.609 1317.07 749.567L1226.98 659.578Z" fill="#1C3041"/>
<g filter="url(#filter1_d)">
<path d="M1311.04 540.135C1311.04 540.135 1219.09 542.655 1215.67 543.772C1212.25 544.921 1148 587.586 1094.2 655.493L1243.4 644.388L1311.04 540.135Z" fill="#325C7F"/>
</g>
<g filter="url(#filter2_d)">
<path d="M1436.66 665.609C1436.66 665.609 1434.13 757.449 1433.02 760.863C1431.86 764.278 1389.15 828.451 1321.16 882.189L1332.28 733.164L1436.66 665.609Z" fill="#325C7F"/>
</g>
<path d="M1296.98 751.577C1294.74 752.758 1292.67 753.843 1290.75 754.832C1286.15 757.193 1282.54 758.917 1280.11 759.938L1279.41 759.236L1252.99 732.845L1243.75 723.623L1225.57 705.466L1216.6 696.499C1217.62 694.073 1219.34 690.467 1221.71 685.872C1222.7 683.958 1223.78 681.915 1224.97 679.65L1237.68 692.35L1255.89 710.539L1266.08 720.719L1290.81 745.418L1296.98 751.577Z" fill="#4479BA"/>
<path d="M1351.96 635.229C1343.4 644.484 1331.77 656.482 1316.21 672.023C1302.63 685.585 1289.5 698.381 1277.39 709.965C1273.5 713.667 1269.69 717.241 1266.05 720.687C1264.39 722.251 1262.76 723.751 1261.13 725.25C1258.32 727.867 1255.57 730.42 1252.95 732.813C1227.2 756.428 1209.57 770.692 1207.68 768.809C1205.8 766.926 1219.36 748.22 1243 722.5C1245.4 719.883 1248.64 718.23 1251.29 715.422C1252.79 713.794 1254.33 712.199 1255.86 710.508C1259.31 706.87 1262.89 703.072 1266.6 699.179C1278.19 687.085 1291 673.969 1304.58 660.407C1318.74 646.271 1329.92 635.421 1338.8 627.124C1365.6 602.138 1371.45 600.446 1373.85 602.84C1376.18 605.201 1374.65 610.722 1351.96 635.229Z" fill="#4479BA"/>
<g opacity="0.7">
<path opacity="0.7" d="M1693.59 774.681C1698.37 774.681 1702.25 770.809 1702.25 766.033C1702.25 761.257 1698.37 757.385 1693.59 757.385C1688.81 757.385 1684.93 761.257 1684.93 766.033C1684.93 770.809 1688.81 774.681 1693.59 774.681Z" fill="#F6FBFD"/>
<path opacity="0.7" d="M1799.62 288.484C1799.62 291.739 1797 294.356 1793.75 294.356C1790.49 294.356 1787.87 291.739 1787.87 288.484C1787.87 285.229 1790.49 282.612 1793.75 282.612C1797 282.612 1799.62 285.229 1799.62 288.484Z" fill="#F6FBFD"/>
<path opacity="0.7" d="M307.884 265.061C311.713 265.061 314.817 261.961 314.817 258.137C314.817 254.312 311.713 251.212 307.884 251.212C304.055 251.212 300.951 254.312 300.951 258.137C300.951 261.961 304.055 265.061 307.884 265.061Z" fill="#F6FBFD"/>
<path opacity="0.7" d="M656.666 317.427C656.666 319.342 655.1 320.906 653.183 320.906C651.266 320.906 649.701 319.342 649.701 317.427C649.701 315.513 651.266 313.949 653.183 313.949C655.1 313.949 656.666 315.481 656.666 317.427Z" fill="#F6FBFD"/>
<path opacity="0.7" d="M831.616 87.1892C833.434 87.1892 834.907 85.7176 834.907 83.9023C834.907 82.0871 833.434 80.6155 831.616 80.6155C829.799 80.6155 828.325 82.0871 828.325 83.9023C828.325 85.7176 829.799 87.1892 831.616 87.1892Z" fill="#F6FBFD"/>
<path opacity="0.7" d="M863.437 480.748C868.836 480.748 873.213 476.376 873.213 470.983C873.213 465.59 868.836 461.218 863.437 461.218C858.038 461.218 853.661 465.59 853.661 470.983C853.661 476.376 858.038 480.748 863.437 480.748Z" fill="#F6FBFD"/>
<path opacity="0.7" d="M1141.13 422.287C1143.83 422.287 1146.02 420.101 1146.02 417.405C1146.02 414.708 1143.83 412.522 1141.13 412.522C1138.43 412.522 1136.25 414.708 1136.25 417.405C1136.25 420.101 1138.43 422.287 1141.13 422.287Z" fill="#F6FBFD"/>
<path opacity="0.7" d="M1107.91 709.805C1107.91 713.571 1104.84 716.634 1101.07 716.634C1097.3 716.634 1094.23 713.571 1094.23 709.805C1094.23 706.04 1097.3 702.977 1101.07 702.977C1104.84 702.977 1107.91 706.04 1107.91 709.805Z" fill="#F6FBFD"/>
<path opacity="0.7" d="M430.918 282.612C430.918 284.782 429.161 286.506 427.02 286.506C424.848 286.506 423.122 284.75 423.122 282.612C423.122 280.442 424.879 278.719 427.02 278.719C429.161 278.719 430.918 280.442 430.918 282.612Z" fill="#F6FBFD"/>
<path opacity="0.7" d="M1483.69 786.424C1486.93 786.424 1489.56 783.795 1489.56 780.552C1489.56 777.31 1486.93 774.681 1483.69 774.681C1480.44 774.681 1477.81 777.31 1477.81 780.552C1477.81 783.795 1480.44 786.424 1483.69 786.424Z" fill="#F6FBFD"/>
<path opacity="0.7" d="M1223.53 924.184C1223.53 927.949 1220.46 931.013 1216.69 931.013C1212.92 931.013 1209.85 927.949 1209.85 924.184C1209.85 920.418 1212.92 917.355 1216.69 917.355C1220.46 917.355 1223.53 920.418 1223.53 924.184Z" fill="#F6FBFD"/>
<path opacity="0.7" d="M1424.9 1016.69C1427.21 1016.69 1429.09 1014.82 1429.09 1012.51C1429.09 1010.2 1427.21 1008.33 1424.9 1008.33C1422.59 1008.33 1420.71 1010.2 1420.71 1012.51C1420.71 1014.82 1422.59 1016.69 1424.9 1016.69Z" fill="#F6FBFD"/>
<path opacity="0.7" d="M978.675 860.138C980.722 860.138 982.381 858.481 982.381 856.437C982.381 854.392 980.722 852.735 978.675 852.735C976.628 852.735 974.969 854.392 974.969 856.437C974.969 858.481 976.628 860.138 978.675 860.138Z" fill="#F6FBFD"/>
<path opacity="0.7" d="M1319.12 990.846C1319.12 991.995 1318.19 992.92 1317.04 992.92C1315.89 992.92 1314.97 991.995 1314.97 990.846C1314.97 989.697 1315.89 988.772 1317.04 988.772C1318.19 988.772 1319.12 989.697 1319.12 990.846Z" fill="#F6FBFD"/>
<path opacity="0.7" d="M995.448 870.573C996.789 870.573 997.876 869.487 997.876 868.148C997.876 866.809 996.789 865.723 995.448 865.723C994.107 865.723 993.02 866.809 993.02 868.148C993.02 869.487 994.107 870.573 995.448 870.573Z" fill="#F6FBFD"/>
<path opacity="0.7" d="M1035.32 553.409C1035.32 556.76 1032.6 559.441 1029.28 559.441C1025.93 559.441 1023.24 556.728 1023.24 553.409C1023.24 550.091 1025.96 547.378 1029.28 547.378C1032.6 547.346 1035.32 550.059 1035.32 553.409Z" fill="#F6FBFD"/>
<path opacity="0.7" d="M1443.27 263.338C1443.27 266.21 1440.94 268.54 1438.06 268.54C1435.19 268.54 1432.86 266.21 1432.86 263.338C1432.86 260.466 1435.19 258.137 1438.06 258.137C1440.94 258.137 1443.27 260.466 1443.27 263.338Z" fill="#F6FBFD"/>
<path opacity="0.7" d="M663.918 332.745C663.918 333.638 663.184 334.372 662.289 334.372C661.394 334.372 660.66 333.638 660.66 332.745C660.66 331.851 661.394 331.117 662.289 331.117C663.184 331.085 663.918 331.819 663.918 332.745Z" fill="#F6FBFD"/>
<path opacity="0.7" d="M1818.25 322.852C1818.25 325.82 1815.82 328.245 1812.85 328.245C1809.88 328.245 1807.45 325.82 1807.45 322.852C1807.45 319.884 1809.88 317.459 1812.85 317.459C1815.82 317.459 1818.25 319.884 1818.25 322.852Z" fill="#F6FBFD"/>
<path opacity="0.7" d="M1830.33 568.408C1830.33 571.758 1827.61 574.439 1824.29 574.439C1820.93 574.439 1818.25 571.726 1818.25 568.408C1818.25 565.089 1820.97 562.376 1824.29 562.376C1827.64 562.376 1830.33 565.057 1830.33 568.408Z" fill="#F6FBFD"/>
<path opacity="0.7" d="M1728.83 758.215C1728.83 761.055 1726.53 763.352 1723.68 763.352C1720.84 763.352 1718.54 761.055 1718.54 758.215C1718.54 755.374 1720.84 753.077 1723.68 753.077C1726.53 753.077 1728.83 755.374 1728.83 758.215Z" fill="#F6FBFD"/>
<path opacity="0.7" d="M1550.52 807.932C1550.52 809.815 1548.99 811.346 1547.1 811.346C1545.22 811.346 1543.69 809.815 1543.69 807.932C1543.69 806.049 1545.22 804.517 1547.1 804.517C1548.99 804.517 1550.52 806.049 1550.52 807.932Z" fill="#F6FBFD"/>
</g>
<g filter="url(#filter3_d)">
<path d="M1216.5 680.671C1227.07 655.748 1298.51 526.987 1374.1 451.454C1462.12 363.539 1649.5 295.377 1665.6 311.46C1681.7 327.543 1613.46 514.701 1525.44 602.616C1449.82 678.15 1320.94 749.471 1295.96 760.033L1216.5 680.671Z" fill="url(#paint2_linear)"/>
</g>
<path opacity="0.4" d="M1514.16 365.134C1513.59 364.56 1512.69 364.56 1512.12 365.134C1511.54 365.709 1511.54 366.634 1512.12 367.177C1512.69 367.751 1513.59 367.751 1514.16 367.177C1514.74 366.602 1514.74 365.677 1514.16 365.134ZM1511.19 362.167C1510.62 361.592 1509.69 361.592 1509.15 362.167C1508.57 362.741 1508.57 363.634 1509.15 364.209C1509.69 364.783 1510.62 364.783 1511.19 364.209C1511.77 363.634 1511.77 362.741 1511.19 362.167ZM1467.3 390.886C1466.72 390.312 1465.83 390.312 1465.25 390.886C1464.68 391.461 1464.68 392.354 1465.25 392.929C1465.83 393.503 1466.72 393.503 1467.3 392.929C1467.87 392.354 1467.87 391.461 1467.3 390.886ZM1464.36 387.951C1463.78 387.376 1462.89 387.376 1462.31 387.951C1461.74 388.525 1461.74 389.419 1462.31 389.993C1462.89 390.567 1463.78 390.567 1464.36 389.993C1464.93 389.419 1464.9 388.525 1464.36 387.951ZM1420.27 578.428C1419.98 578.14 1419.5 578.14 1419.21 578.428L1415.09 582.544L1358.35 639.218L1282.44 715.039L1276.79 720.687C1276.5 720.942 1276.5 721.421 1276.79 721.74C1276.95 721.9 1277.11 721.964 1277.33 721.964C1277.52 721.964 1277.71 721.9 1277.87 721.74L1283.53 716.092L1356.08 643.59L1365.86 653.387L1368.48 656.003L1401.1 688.553L1407.78 695.222C1408.1 694.999 1408.41 694.807 1408.73 694.552C1408.83 694.488 1408.96 694.424 1409.02 694.36L1402.38 687.723L1367.42 652.812L1372.38 647.866L1398.35 621.954C1398.51 621.795 1398.57 621.635 1398.57 621.412V612.381C1398.57 612.158 1398.51 611.998 1398.35 611.839L1393.05 606.573L1416.37 583.278L1420.2 579.449C1420.56 579.194 1420.56 578.715 1420.27 578.428ZM1397.11 612.7V621.125L1366.4 651.791L1357.14 642.537L1359.66 640.016L1392.09 607.626L1397.11 612.7ZM1576.66 510.01C1576.5 509.851 1576.34 509.787 1576.11 509.787C1575.89 509.787 1575.73 509.851 1575.57 510.01L1518.64 566.908C1518.48 567.035 1518.41 567.227 1518.41 567.418C1518.41 567.642 1518.51 567.801 1518.64 567.961L1538.92 588.224C1539.24 587.873 1539.6 587.49 1539.92 587.076L1520.23 567.418L1576.11 511.606L1586.75 522.232C1587.01 521.817 1587.29 521.371 1587.55 520.924L1576.66 510.01ZM1554.39 351.54C1554.36 351.444 1554.29 351.381 1554.23 351.317C1554 351.093 1553.68 351.03 1553.43 351.125C1550.84 352.242 1548.32 353.327 1545.79 354.412C1533.81 359.678 1522.54 364.911 1511.83 370.24L1504.1 362.549C1503.65 362.773 1503.17 363.028 1502.7 363.252L1510.43 370.942C1494.32 378.984 1479.44 387.217 1465.41 395.96L1457.68 388.238C1457.23 388.493 1456.78 388.78 1456.37 389.036L1464.1 396.758C1431.67 417.085 1403.46 440.221 1373.72 469.898C1325.44 518.116 1250.59 641.229 1234.9 667.428C1233.05 670.459 1232.03 672.214 1231.93 672.342C1231.74 672.693 1231.84 673.14 1232.19 673.363C1232.31 673.427 1232.44 673.459 1232.57 673.459C1232.83 673.459 1233.08 673.331 1233.24 673.108C1233.34 672.948 1234.3 671.353 1235.96 668.544V668.513C1251.2 643.079 1326.47 519.233 1374.74 470.951C1426.63 419.16 1473.85 387.408 1546.88 355.465C1548.96 354.572 1551.03 353.678 1553.17 352.753C1553.4 352.657 1553.68 352.529 1553.94 352.434C1554.39 352.37 1554.58 351.923 1554.39 351.54ZM1396.47 631.687C1395.92 631.145 1395 631.145 1394.42 631.687C1393.85 632.262 1393.85 633.187 1394.42 633.761C1395 634.304 1395.92 634.304 1396.47 633.761C1397.04 633.187 1397.04 632.262 1396.47 631.687ZM1389.85 638.325C1389.28 637.75 1388.35 637.75 1387.81 638.325C1387.23 638.899 1387.23 639.793 1387.81 640.367C1388.35 640.941 1389.28 640.941 1389.85 640.367C1390.43 639.793 1390.43 638.899 1389.85 638.325ZM1383.21 644.962C1382.63 644.388 1381.74 644.388 1381.16 644.962C1380.59 645.537 1380.59 646.43 1381.16 647.005C1381.74 647.579 1382.63 647.579 1383.21 647.005C1383.78 646.43 1383.78 645.505 1383.21 644.962ZM1376.59 651.536C1376.02 650.961 1375.09 650.961 1374.52 651.536C1373.97 652.11 1373.97 653.036 1374.52 653.61C1375.09 654.153 1376.02 654.153 1376.59 653.61C1377.14 653.036 1377.14 652.11 1376.59 651.536ZM1398.29 577.375C1397.71 576.8 1396.79 576.8 1396.21 577.375C1395.67 577.949 1395.67 578.843 1396.21 579.417C1396.79 579.991 1397.71 579.991 1398.29 579.417C1398.83 578.843 1398.83 577.949 1398.29 577.375ZM1391.64 583.98C1391.07 583.438 1390.17 583.438 1389.6 583.98C1389.02 584.555 1389.02 585.48 1389.6 586.054C1390.17 586.597 1391.07 586.597 1391.64 586.054C1392.22 585.48 1392.22 584.555 1391.64 583.98ZM1385 590.618C1384.45 590.043 1383.53 590.043 1382.95 590.618C1382.38 591.192 1382.38 592.086 1382.95 592.66C1383.53 593.234 1384.45 593.234 1385 592.66C1385.57 592.086 1385.57 591.192 1385 590.618ZM1378.38 597.255C1377.81 596.681 1376.88 596.681 1376.34 597.255C1375.76 597.83 1375.76 598.723 1376.34 599.298C1376.88 599.872 1377.81 599.872 1378.38 599.298C1378.96 598.723 1378.96 597.83 1378.38 597.255ZM1498 477.78C1497.42 477.206 1496.53 477.206 1495.95 477.78C1495.38 478.323 1495.38 479.248 1495.95 479.823C1496.53 480.397 1497.42 480.397 1498 479.823C1498.54 479.248 1498.54 478.323 1498 477.78ZM1504.64 471.175C1504.07 470.6 1503.14 470.6 1502.57 471.175C1501.99 471.749 1501.99 472.643 1502.57 473.217C1503.14 473.791 1504.07 473.791 1504.64 473.217C1505.16 472.611 1505.16 471.717 1504.64 471.175ZM1511.23 464.537C1510.65 463.963 1509.76 463.963 1509.18 464.537C1508.61 465.112 1508.61 466.037 1509.18 466.611C1509.76 467.154 1510.65 467.154 1511.23 466.611C1511.8 466.037 1511.8 465.112 1511.23 464.537ZM1570.91 404.959C1570.33 404.385 1569.4 404.385 1568.86 404.959C1568.29 405.534 1568.29 406.427 1568.86 407.002C1569.4 407.576 1570.33 407.576 1570.91 407.002C1571.48 406.427 1571.48 405.534 1570.91 404.959ZM1564.26 411.565C1563.68 411.022 1562.79 411.022 1562.22 411.565C1561.64 412.139 1561.64 413.065 1562.22 413.639C1562.79 414.182 1563.68 414.182 1564.26 413.639C1564.83 413.065 1564.83 412.139 1564.26 411.565ZM1557.61 418.202C1557.07 417.628 1556.14 417.628 1555.57 418.202C1554.99 418.777 1554.99 419.67 1555.57 420.245C1556.14 420.819 1557.07 420.819 1557.61 420.245C1558.19 419.67 1558.19 418.777 1557.61 418.202ZM1551 424.84C1550.43 424.265 1549.53 424.265 1548.96 424.84C1548.38 425.382 1548.38 426.308 1548.96 426.882C1549.53 427.457 1550.43 427.457 1551 426.882C1551.58 426.308 1551.58 425.382 1551 424.84ZM1544.39 431.445C1543.81 430.871 1542.92 430.871 1542.34 431.445C1541.77 432.02 1541.77 432.945 1542.34 433.488C1542.92 434.062 1543.81 434.062 1544.39 433.488C1544.93 432.913 1544.93 431.988 1544.39 431.445ZM1537.77 438.051C1537.2 437.477 1536.27 437.477 1535.7 438.051C1535.15 438.625 1535.15 439.519 1535.7 440.093C1536.27 440.668 1537.2 440.668 1537.77 440.093C1538.32 439.519 1538.32 438.625 1537.77 438.051ZM1531.13 444.657C1530.55 444.114 1529.66 444.114 1529.08 444.657C1528.51 445.231 1528.51 446.156 1529.08 446.731C1529.66 447.273 1530.55 447.273 1531.13 446.731C1531.7 446.156 1531.7 445.231 1531.13 444.657ZM1524.48 451.294C1523.94 450.72 1523.01 450.72 1522.44 451.294C1521.86 451.869 1521.86 452.762 1522.44 453.336C1523.01 453.911 1523.94 453.911 1524.48 453.336C1525.06 452.762 1525.06 451.869 1524.48 451.294ZM1517.87 457.932C1517.3 457.357 1516.37 457.357 1515.83 457.932C1515.25 458.506 1515.25 459.4 1515.83 459.974C1516.37 460.548 1517.3 460.548 1517.87 459.974C1518.45 459.4 1518.45 458.506 1517.87 457.932Z" fill="#1C3041"/>
<g filter="url(#filter4_d)">
<path d="M1446.47 591.192C1480.11 591.192 1507.39 563.947 1507.39 530.338C1507.39 496.729 1480.11 469.483 1446.47 469.483C1412.82 469.483 1385.54 496.729 1385.54 530.338C1385.54 563.947 1412.82 591.192 1446.47 591.192Z" fill="#325C7F"/>
</g>
<path d="M1446.47 578.938C1473.34 578.938 1495.12 557.179 1495.12 530.338C1495.12 503.496 1473.34 481.737 1446.47 481.737C1419.59 481.737 1397.81 503.496 1397.81 530.338C1397.81 557.179 1419.59 578.938 1446.47 578.938Z" fill="white"/>
<path d="M1537.81 346.434L1630.55 439.072C1659.24 375.442 1674.03 319.885 1665.6 311.428C1657.17 303.004 1601.51 317.778 1537.81 346.434Z" fill="#325C7F"/>
<g filter="url(#filter5_d)">
<path d="M1224.7 659C1219.53 668.786 1215.87 676.248 1214 680.602L1295.4 762C1299.75 760.134 1307.25 756.469 1317 751.297L1224.7 659Z" fill="url(#paint3_linear)"/>
</g>
<path opacity="0.4" d="M1553.72 354.348C1553.01 353.646 1553.01 352.529 1553.72 351.859L1557.26 348.317C1557.97 347.615 1559.08 347.615 1559.75 348.317C1560.46 349.019 1560.46 350.136 1559.75 350.806L1556.21 354.348C1555.54 355.019 1554.42 355.019 1553.72 354.348Z" fill="#5A6F7B"/>
<path opacity="0.4" d="M1562.31 362.932C1561.61 362.23 1561.61 361.114 1562.31 360.443L1565.86 356.901C1566.56 356.199 1567.68 356.199 1568.35 356.901C1569.05 357.603 1569.05 358.72 1568.35 359.39L1564.8 362.932C1564.13 363.603 1563.01 363.603 1562.31 362.932Z" fill="#5A6F7B"/>
<path opacity="0.4" d="M1570.94 371.517C1570.23 370.815 1570.23 369.698 1570.94 369.028L1574.48 365.485C1575.19 364.783 1576.3 364.783 1576.98 365.485C1577.68 366.187 1577.68 367.304 1576.98 367.974L1573.43 371.517C1572.73 372.219 1571.61 372.219 1570.94 371.517Z" fill="#5A6F7B"/>
<path opacity="0.4" d="M1579.53 380.101C1578.83 379.399 1578.83 378.282 1579.53 377.612L1583.08 374.069C1583.78 373.367 1584.9 373.367 1585.57 374.069C1586.27 374.771 1586.27 375.888 1585.57 376.559L1582.02 380.101C1581.35 380.803 1580.23 380.803 1579.53 380.101Z" fill="#5A6F7B"/>
<path opacity="0.4" d="M1588.13 388.717C1587.42 388.015 1587.42 386.898 1588.13 386.228L1591.67 382.685C1592.37 381.983 1593.49 381.983 1594.16 382.685C1594.87 383.388 1594.87 384.504 1594.16 385.175L1590.62 388.717C1589.95 389.387 1588.83 389.387 1588.13 388.717Z" fill="#5A6F7B"/>
<path opacity="0.4" d="M1596.72 397.301C1596.02 396.599 1596.02 395.482 1596.72 394.812L1600.27 391.27C1600.97 390.568 1602.09 390.568 1602.76 391.27C1603.46 391.972 1603.46 393.088 1602.76 393.759L1599.21 397.301C1598.54 398.003 1597.42 398.003 1596.72 397.301Z" fill="#5A6F7B"/>
<path opacity="0.4" d="M1605.35 405.885C1604.64 405.183 1604.64 404.066 1605.35 403.396L1608.89 399.854C1609.59 399.152 1610.71 399.152 1611.38 399.854C1612.09 400.556 1612.09 401.673 1611.38 402.343L1607.84 405.885C1607.13 406.587 1606.02 406.587 1605.35 405.885Z" fill="#5A6F7B"/>
<path opacity="0.4" d="M1613.94 414.501C1613.24 413.799 1613.24 412.682 1613.94 412.012L1617.49 408.47C1618.19 407.768 1619.31 407.768 1619.98 408.47C1620.68 409.172 1620.68 410.289 1619.98 410.959L1616.43 414.501C1615.76 415.171 1614.64 415.171 1613.94 414.501Z" fill="#5A6F7B"/>
<path opacity="0.4" d="M1622.53 423.085C1621.83 422.383 1621.83 421.266 1622.53 420.596L1626.08 417.054C1626.78 416.352 1627.9 416.352 1628.57 417.054C1629.28 417.756 1629.28 418.873 1628.57 419.543L1625.03 423.085C1624.35 423.755 1623.24 423.755 1622.53 423.085Z" fill="#5A6F7B"/>
<path d="M846.723 4826.03V4820.41C847.742 4821.26 848.85 4821.91 850.045 4822.34C851.24 4822.76 852.447 4822.97 853.666 4822.97C854.381 4822.97 855.002 4822.91 855.529 4822.78C856.068 4822.65 856.514 4822.48 856.865 4822.25C857.229 4822.02 857.498 4821.75 857.674 4821.45C857.85 4821.13 857.938 4820.79 857.938 4820.43C857.938 4819.93 857.797 4819.49 857.516 4819.11C857.234 4818.72 856.848 4818.36 856.355 4818.04C855.875 4817.71 855.301 4817.39 854.633 4817.09C853.965 4816.78 853.244 4816.47 852.471 4816.15C850.502 4815.33 849.031 4814.33 848.059 4813.15C847.098 4811.96 846.617 4810.54 846.617 4808.86C846.617 4807.55 846.881 4806.42 847.408 4805.48C847.936 4804.54 848.65 4803.76 849.553 4803.15C850.467 4802.54 851.521 4802.09 852.717 4801.81C853.912 4801.52 855.178 4801.37 856.514 4801.37C857.826 4801.37 858.986 4801.45 859.994 4801.62C861.014 4801.77 861.951 4802.01 862.807 4802.34V4807.59C862.385 4807.3 861.922 4807.04 861.418 4806.82C860.926 4806.6 860.416 4806.42 859.889 4806.28C859.361 4806.12 858.834 4806.01 858.307 4805.94C857.791 4805.87 857.299 4805.84 856.83 4805.84C856.186 4805.84 855.6 4805.9 855.072 4806.03C854.545 4806.15 854.1 4806.32 853.736 4806.54C853.373 4806.76 853.092 4807.03 852.893 4807.35C852.693 4807.65 852.594 4808 852.594 4808.38C852.594 4808.81 852.705 4809.19 852.928 4809.53C853.15 4809.86 853.467 4810.17 853.877 4810.48C854.287 4810.77 854.785 4811.06 855.371 4811.36C855.957 4811.64 856.619 4811.93 857.357 4812.23C858.365 4812.66 859.268 4813.11 860.064 4813.59C860.873 4814.06 861.564 4814.59 862.139 4815.19C862.713 4815.79 863.152 4816.47 863.457 4817.24C863.762 4818.01 863.914 4818.9 863.914 4819.92C863.914 4821.32 863.645 4822.51 863.105 4823.47C862.578 4824.42 861.857 4825.19 860.943 4825.79C860.029 4826.37 858.963 4826.79 857.744 4827.05C856.537 4827.31 855.26 4827.44 853.912 4827.44C852.529 4827.44 851.211 4827.32 849.957 4827.09C848.715 4826.85 847.637 4826.5 846.723 4826.03ZM883.509 4819.58H871.767C871.955 4822.2 873.601 4823.5 876.707 4823.5C878.687 4823.5 880.427 4823.03 881.927 4822.1V4826.1C880.263 4826.99 878.101 4827.44 875.441 4827.44C872.535 4827.44 870.279 4826.64 868.674 4825.03C867.068 4823.41 866.265 4821.16 866.265 4818.28C866.265 4815.29 867.132 4812.93 868.867 4811.18C870.601 4809.43 872.734 4808.56 875.265 4808.56C877.89 4808.56 879.918 4809.34 881.347 4810.9C882.789 4812.46 883.509 4814.57 883.509 4817.24V4819.58ZM878.359 4816.17C878.359 4813.59 877.316 4812.3 875.23 4812.3C874.34 4812.3 873.566 4812.67 872.91 4813.41C872.265 4814.15 871.873 4815.07 871.732 4816.17H878.359ZM902.806 4819.58H891.064C891.251 4822.2 892.898 4823.5 896.003 4823.5C897.984 4823.5 899.724 4823.03 901.224 4822.1V4826.1C899.56 4826.99 897.398 4827.44 894.738 4827.44C891.831 4827.44 889.576 4826.64 887.97 4825.03C886.365 4823.41 885.562 4821.16 885.562 4818.28C885.562 4815.29 886.429 4812.93 888.163 4811.18C889.898 4809.43 892.031 4808.56 894.562 4808.56C897.187 4808.56 899.214 4809.34 900.644 4810.9C902.085 4812.46 902.806 4814.57 902.806 4817.24V4819.58ZM897.656 4816.17C897.656 4813.59 896.613 4812.3 894.527 4812.3C893.636 4812.3 892.863 4812.67 892.206 4813.41C891.562 4814.15 891.169 4815.07 891.029 4816.17H897.656ZM926.897 4827.44C923.288 4827.44 920.346 4826.27 918.073 4823.92C915.8 4821.57 914.663 4818.5 914.663 4814.73C914.663 4810.75 915.817 4807.52 918.126 4805.06C920.434 4802.6 923.493 4801.37 927.301 4801.37C930.899 4801.37 933.805 4802.55 936.02 4804.9C938.247 4807.26 939.36 4810.37 939.36 4814.22C939.36 4818.18 938.206 4821.38 935.897 4823.8C933.6 4826.23 930.6 4827.44 926.897 4827.44ZM927.143 4806.26C925.151 4806.26 923.569 4807.01 922.397 4808.51C921.225 4810 920.639 4811.97 920.639 4814.43C920.639 4816.93 921.225 4818.9 922.397 4820.36C923.569 4821.81 925.104 4822.54 927.003 4822.54C928.96 4822.54 930.512 4821.83 931.661 4820.43C932.809 4819.01 933.384 4817.04 933.384 4814.54C933.384 4811.92 932.827 4809.89 931.714 4808.44C930.6 4806.98 929.077 4806.26 927.143 4806.26ZM954.579 4804.61C953.864 4804.32 953.178 4804.18 952.522 4804.18C950.741 4804.18 949.85 4805.15 949.85 4807.08V4809H953.963V4813.1H949.85V4827H944.313V4813.1H941.289V4809H944.313V4806.77C944.313 4804.72 944.981 4803.06 946.317 4801.81C947.653 4800.56 949.469 4799.93 951.766 4799.93C952.891 4799.93 953.829 4800.05 954.579 4800.28V4804.61ZM968.215 4804.61C967.5 4804.32 966.815 4804.18 966.158 4804.18C964.377 4804.18 963.486 4805.15 963.486 4807.08V4809H967.6V4813.1H963.486V4827H957.949V4813.1H954.926V4809H957.949V4806.77C957.949 4804.72 958.617 4803.06 959.953 4801.81C961.289 4800.56 963.106 4799.93 965.402 4799.93C966.527 4799.93 967.465 4800.05 968.215 4800.28V4804.61ZM986.281 4819.58H974.539C974.726 4822.2 976.373 4823.5 979.478 4823.5C981.459 4823.5 983.199 4823.03 984.699 4822.1V4826.1C983.035 4826.99 980.873 4827.44 978.213 4827.44C975.306 4827.44 973.051 4826.64 971.445 4825.03C969.84 4823.41 969.037 4821.16 969.037 4818.28C969.037 4815.29 969.904 4812.93 971.638 4811.18C973.373 4809.43 975.506 4808.56 978.037 4808.56C980.662 4808.56 982.689 4809.34 984.119 4810.9C985.56 4812.46 986.281 4814.57 986.281 4817.24V4819.58ZM981.131 4816.17C981.131 4813.59 980.088 4812.3 978.002 4812.3C977.111 4812.3 976.338 4812.67 975.681 4813.41C975.037 4814.15 974.644 4815.07 974.504 4816.17H981.131ZM1001.15 4814.01C1000.48 4813.65 999.701 4813.46 998.81 4813.46C997.603 4813.46 996.66 4813.91 995.98 4814.8C995.3 4815.68 994.96 4816.88 994.96 4818.4V4827H989.406V4809H994.96V4812.34H995.031C995.91 4809.9 997.492 4808.68 999.777 4808.68C1000.36 4808.68 1000.82 4808.75 1001.15 4808.89V4814.01ZM1002.6 4826.53V4822.03C1003.52 4822.58 1004.42 4822.99 1005.33 4823.26C1006.24 4823.53 1007.1 4823.66 1007.91 4823.66C1008.9 4823.66 1009.67 4823.53 1010.23 4823.26C1010.81 4822.99 1011.09 4822.58 1011.09 4822.03C1011.09 4821.67 1010.96 4821.38 1010.71 4821.15C1010.45 4820.91 1010.11 4820.71 1009.7 4820.53C1009.31 4820.36 1008.87 4820.2 1008.39 4820.06C1007.91 4819.92 1007.44 4819.76 1007 4819.58C1006.28 4819.31 1005.65 4819.03 1005.1 4818.72C1004.56 4818.4 1004.1 4818.04 1003.73 4817.63C1003.36 4817.22 1003.08 4816.75 1002.88 4816.21C1002.7 4815.67 1002.6 4815.03 1002.6 4814.29C1002.6 4813.28 1002.82 4812.42 1003.25 4811.69C1003.7 4810.96 1004.28 4810.37 1005.01 4809.91C1005.75 4809.45 1006.59 4809.11 1007.52 4808.89C1008.47 4808.67 1009.46 4808.56 1010.48 4808.56C1011.27 4808.56 1012.08 4808.62 1012.9 4808.75C1013.72 4808.87 1014.53 4809.05 1015.33 4809.28V4813.57C1014.63 4813.16 1013.87 4812.86 1013.06 4812.66C1012.26 4812.45 1011.48 4812.34 1010.71 4812.34C1010.34 4812.34 1010 4812.38 1009.67 4812.45C1009.35 4812.5 1009.07 4812.6 1008.83 4812.73C1008.58 4812.84 1008.39 4813 1008.25 4813.2C1008.1 4813.39 1008.03 4813.61 1008.03 4813.85C1008.03 4814.18 1008.14 4814.46 1008.35 4814.7C1008.56 4814.93 1008.84 4815.13 1009.18 4815.31C1009.52 4815.47 1009.89 4815.63 1010.3 4815.77C1010.72 4815.9 1011.14 4816.03 1011.55 4816.17C1012.29 4816.43 1012.96 4816.71 1013.55 4817.02C1014.15 4817.32 1014.66 4817.68 1015.08 4818.09C1015.52 4818.5 1015.84 4818.98 1016.07 4819.53C1016.3 4820.08 1016.42 4820.74 1016.42 4821.5C1016.42 4822.56 1016.18 4823.48 1015.72 4824.24C1015.26 4824.99 1014.64 4825.61 1013.87 4826.09C1013.11 4826.55 1012.22 4826.89 1011.22 4827.11C1010.22 4827.33 1009.18 4827.44 1008.1 4827.44C1006.12 4827.44 1004.29 4827.13 1002.6 4826.53Z" fill="#1C3041"/>
<path d="M1056 4799C1046.06 4799 1038 4806.84 1038 4816.5C1038 4826.16 1046.06 4834 1056 4834C1065.94 4834 1074 4826.16 1074 4816.5C1074 4806.84 1065.94 4799 1056 4799ZM1056 4831.08C1047.72 4831.08 1041 4824.55 1041 4816.5C1041 4808.45 1047.72 4801.92 1056 4801.92C1064.28 4801.92 1071 4808.45 1071 4816.5C1071 4824.55 1064.28 4831.08 1056 4831.08Z" fill="#1C3041"/>
<path d="M1054.06 4808.18C1053.48 4807.61 1052.53 4807.61 1051.94 4808.18C1051.35 4808.75 1051.35 4809.67 1051.94 4810.24L1058.38 4816.5L1051.94 4822.76C1051.35 4823.33 1051.35 4824.25 1051.94 4824.82C1052.53 4825.39 1053.48 4825.39 1054.06 4824.82L1061.56 4817.53C1062.15 4816.96 1062.15 4816.04 1061.56 4815.47L1054.06 4808.18Z" fill="#1C3041"/>
<defs>
<filter id="filter0_d" x="-17" y="1" width="1960.69" height="1128.84" filterUnits="userSpaceOnUse" color-interpolation-filters="sRGB">
<feFlood flood-opacity="0" result="BackgroundImageFix"/>
<feColorMatrix in="SourceAlpha" type="matrix" values="0 0 0 0 0 0 0 0 0 0 0 0 0 0 0 0 0 0 127 0"/>
<feOffset dx="4" dy="4"/>
<feGaussianBlur stdDeviation="2"/>
<feColorMatrix type="matrix" values="0 0 0 0 0 0 0 0 0 0 0 0 0 0 0 0 0 0 0.25 0"/>
<feBlend mode="normal" in2="BackgroundImageFix" result="effect1_dropShadow"/>
<feBlend mode="normal" in="SourceGraphic" in2="effect1_dropShadow" result="shape"/>
</filter>
<filter id="filter1_d" x="1094.2" y="540.135" width="224.834" height="123.358" filterUnits="userSpaceOnUse" color-interpolation-filters="sRGB">
<feFlood flood-opacity="0" result="BackgroundImageFix"/>
<feColorMatrix in="SourceAlpha" type="matrix" values="0 0 0 0 0 0 0 0 0 0 0 0 0 0 0 0 0 0 127 0"/>
<feOffset dx="4" dy="4"/>
<feGaussianBlur stdDeviation="2"/>
<feColorMatrix type="matrix" values="0 0 0 0 0 0 0 0 0 0 0 0 0 0 0 0 0 0 0.25 0"/>
<feBlend mode="normal" in2="BackgroundImageFix" result="effect1_dropShadow"/>
<feBlend mode="normal" in="SourceGraphic" in2="effect1_dropShadow" result="shape"/>
</filter>
<filter id="filter2_d" x="1321.16" y="665.609" width="123.494" height="224.58" filterUnits="userSpaceOnUse" color-interpolation-filters="sRGB">
<feFlood flood-opacity="0" result="BackgroundImageFix"/>
<feColorMatrix in="SourceAlpha" type="matrix" values="0 0 0 0 0 0 0 0 0 0 0 0 0 0 0 0 0 0 127 0"/>
<feOffset dx="4" dy="4"/>
<feGaussianBlur stdDeviation="2"/>
<feColorMatrix type="matrix" values="0 0 0 0 0 0 0 0 0 0 0 0 0 0 0 0 0 0 0.25 0"/>
<feBlend mode="normal" in2="BackgroundImageFix" result="effect1_dropShadow"/>
<feBlend mode="normal" in="SourceGraphic" in2="effect1_dropShadow" result="shape"/>
</filter>
<filter id="filter3_d" x="1216.5" y="309.098" width="459.465" height="458.936" filterUnits="userSpaceOnUse" color-interpolation-filters="sRGB">
<feFlood flood-opacity="0" result="BackgroundImageFix"/>
<feColorMatrix in="SourceAlpha" type="matrix" values="0 0 0 0 0 0 0 0 0 0 0 0 0 0 0 0 0 0 127 0"/>
<feOffset dx="4" dy="4"/>
<feGaussianBlur stdDeviation="2"/>
<feColorMatrix type="matrix" values="0 0 0 0 0 0 0 0 0 0 0 0 0 0 0 0 0 0 0.25 0"/>
<feBlend mode="normal" in2="BackgroundImageFix" result="effect1_dropShadow"/>
<feBlend mode="normal" in="SourceGraphic" in2="effect1_dropShadow" result="shape"/>
</filter>
<filter id="filter4_d" x="1385.54" y="469.483" width="129.852" height="129.709" filterUnits="userSpaceOnUse" color-interpolation-filters="sRGB">
<feFlood flood-opacity="0" result="BackgroundImageFix"/>
<feColorMatrix in="SourceAlpha" type="matrix" values="0 0 0 0 0 0 0 0 0 0 0 0 0 0 0 0 0 0 127 0"/>
<feOffset dx="4" dy="4"/>
<feGaussianBlur stdDeviation="2"/>
<feColorMatrix type="matrix" values="0 0 0 0 0 0 0 0 0 0 0 0 0 0 0 0 0 0 0.25 0"/>
<feBlend mode="normal" in2="BackgroundImageFix" result="effect1_dropShadow"/>
<feBlend mode="normal" in="SourceGraphic" in2="effect1_dropShadow" result="shape"/>
</filter>
<filter id="filter5_d" x="1210" y="659" width="111" height="111" filterUnits="userSpaceOnUse" color-interpolation-filters="sRGB">
<feFlood flood-opacity="0" result="BackgroundImageFix"/>
<feColorMatrix in="SourceAlpha" type="matrix" values="0 0 0 0 0 0 0 0 0 0 0 0 0 0 0 0 0 0 127 0"/>
<feOffset dy="4"/>
<feGaussianBlur stdDeviation="2"/>
<feColorMatrix type="matrix" values="0 0 0 0 0 0 0 0 0 0 0 0 0 0 0 0 0 0 0.25 0"/>
<feBlend mode="normal" in2="BackgroundImageFix" result="effect1_dropShadow"/>
<feBlend mode="normal" in="SourceGraphic" in2="effect1_dropShadow" result="shape"/>
</filter>
<linearGradient id="paint0_linear" x1="1259.06" y1="742.947" x2="1296.88" y2="682.362" gradientUnits="userSpaceOnUse">
<stop offset="0.00292468" stop-color="#F9FCFF"/>
<stop offset="1" stop-color="white"/>
</linearGradient>
<linearGradient id="paint1_linear" x1="1306.53" y1="558.248" x2="1102.35" y2="653.487" gradientUnits="userSpaceOnUse">
<stop stop-color="#4E6C77"/>
<stop offset="0.1591" stop-color="#496570"/>
<stop offset="0.3962" stop-color="#3D535B"/>
<stop offset="0.6821" stop-color="#28343A"/>
<stop offset="1" stop-color="#0B0B0D"/>
</linearGradient>
<linearGradient id="paint2_linear" x1="1216.51" y1="534.554" x2="1667.97" y2="534.554" gradientUnits="userSpaceOnUse">
<stop offset="0.0005008" stop-color="white"/>
<stop offset="0.0006008" stop-color="#B4E0F2"/>
<stop offset="0.0007008" stop-color="#F2F9FE"/>
<stop offset="0.0008008" stop-color="#CEEAF7"/>
<stop offset="0.0009008" stop-color="white"/>
</linearGradient>
<linearGradient id="paint3_linear" x1="1191.68" y1="615.486" x2="1273.51" y2="726.848" gradientUnits="userSpaceOnUse">
<stop offset="0.0001" stop-color="#37ACDA"/>
<stop offset="0.0002" stop-color="#357297"/>
<stop offset="0.0003" stop-color="#3793BC"/>
<stop offset="0.0004" stop-color="#193546"/>
<stop offset="0.0005" stop-color="#193546"/>
</linearGradient>
</defs>
</svg>
