<svg width="741" height="586" viewBox="0 0 741 586" fill="none" xmlns="http://www.w3.org/2000/svg">
<g filter="url(#filter0_d)">
<path d="M663.643 511.633H30.9874C23.0128 511.633 16.541 505.169 16.541 497.205V30.4289C16.541 22.4645 23.0128 16.001 30.9874 16.001H663.643C671.617 16.001 678.089 22.4645 678.089 30.4289V497.205C678.089 505.169 671.617 511.633 663.643 511.633Z" fill="white"/>
</g>
<path d="M678.45 52.2804H16.1011V26.9466C16.1011 20.3429 21.4508 15 28.0629 15H666.489C673.101 15 678.45 20.3429 678.45 26.9466V52.2804Z" fill="#263238"/>
<path d="M40.1041 39.4735C43.0477 39.4735 45.4339 37.0903 45.4339 34.1506C45.4339 31.2108 43.0477 28.8276 40.1041 28.8276C37.1606 28.8276 34.7744 31.2108 34.7744 34.1506C34.7744 37.0903 37.1606 39.4735 40.1041 39.4735Z" fill="#F5F5F5"/>
<path d="M56.6942 39.4735C59.6378 39.4735 62.024 37.0903 62.024 34.1506C62.024 31.2108 59.6378 28.8276 56.6942 28.8276C53.7507 28.8276 51.3645 31.2108 51.3645 34.1506C51.3645 37.0903 53.7507 39.4735 56.6942 39.4735Z" fill="#F5F5F5"/>
<path d="M73.3046 39.4735C76.2481 39.4735 78.6343 37.0903 78.6343 34.1506C78.6343 31.2108 76.2481 28.8276 73.3046 28.8276C70.3611 28.8276 67.9749 31.2108 67.9749 34.1506C67.9749 37.0903 70.3611 39.4735 73.3046 39.4735Z" fill="#F5F5F5"/>
<g filter="url(#filter1_d)">
<path d="M702.153 561.52H69.4977C61.5231 561.52 55.0513 555.056 55.0513 547.092V80.3156C55.0513 72.3512 61.5231 65.8877 69.4977 65.8877H702.153C710.127 65.8877 716.599 72.3512 716.599 80.3156V547.092C716.599 555.056 710.127 561.52 702.153 561.52Z" fill="white"/>
</g>
<path d="M668.932 272.341H411.783C402.686 272.341 395.333 264.977 395.333 255.912V157.798C395.333 148.713 402.706 141.369 411.783 141.369H668.932C678.029 141.369 685.382 148.733 685.382 157.798V255.892C685.402 264.977 678.029 272.341 668.932 272.341Z" fill="#1C3041"/>
<g opacity="0.2">
<g opacity="0.2">
<path opacity="0.2" d="M551.858 201.362V206.565H547.21V201.503C542.622 201.222 538.194 199.782 535.649 197.801L538.194 192.137C540.518 193.858 543.864 195.099 547.21 195.439V187.695C542.061 186.434 536.29 184.733 536.29 178.09C536.29 173.167 539.857 168.945 547.21 168.124V162.981H551.858V168.044C555.345 168.324 558.731 169.245 561.296 170.866L558.972 176.569C556.607 175.228 554.183 174.428 551.858 174.148V182.032C557.008 183.233 562.678 184.953 562.678 191.497C562.678 196.3 559.152 200.482 551.858 201.362ZM547.21 180.871V174.288C544.746 174.848 543.784 176.189 543.784 177.73C543.764 179.33 545.166 180.211 547.21 180.871ZM555.205 192.037C555.205 190.416 553.862 189.536 551.858 188.836V195.239C554.183 194.739 555.205 193.518 555.205 192.037Z" fill="white"/>
</g>
</g>
<g opacity="0.2">
<g opacity="0.2">
<path opacity="0.2" d="M574.119 234.12V238.142H570.533V234.22C566.966 234 563.56 232.899 561.576 231.339L563.56 226.956C565.363 228.277 567.948 229.257 570.533 229.498V223.494C566.545 222.534 562.077 221.193 562.077 216.07C562.077 212.268 564.842 209.006 570.533 208.346V204.364H574.119V208.286C576.824 208.506 579.449 209.226 581.412 210.467L579.609 214.89C577.766 213.849 575.902 213.229 574.099 213.029V219.132C578.086 220.072 582.474 221.393 582.474 226.456C582.494 230.198 579.749 233.44 574.119 234.12ZM570.512 218.251V213.149C568.609 213.589 567.848 214.629 567.848 215.81C567.848 217.051 568.93 217.731 570.512 218.251ZM576.704 226.896C576.704 225.635 575.662 224.955 574.119 224.415V229.377C575.902 228.977 576.704 228.037 576.704 226.896Z" fill="white"/>
</g>
</g>
<path d="M601.649 196.56C601.669 196.56 601.689 196.84 601.709 197.38C601.729 198 601.75 198.781 601.77 199.741C601.79 201.903 601.81 204.864 601.85 208.566C601.85 216.23 601.85 226.936 601.83 239.543L601.73 239.243C603.192 240.784 605.516 241.784 607.841 242.365C610.205 242.965 612.73 243.225 615.314 243.225C620.404 243.225 625.954 241.984 630.282 238.743L630.101 239.143V239.103C630.141 223.254 630.161 208.566 630.201 196.54L630.242 196.7C629.801 195.819 628.839 195.039 627.937 194.478C626.996 193.898 625.974 193.518 624.972 193.178C622.928 192.557 620.905 192.257 619.001 192.137C615.174 191.877 611.828 192.137 609.143 192.697C606.478 193.278 604.515 194.198 603.332 195.039C602.751 195.459 602.331 195.839 602.07 196.119C601.77 196.42 601.669 196.56 601.649 196.56C601.609 196.54 601.97 195.799 603.132 194.859C604.294 193.918 606.278 192.898 608.983 192.237C611.688 191.617 615.094 191.277 618.981 191.477C620.925 191.577 623.008 191.837 625.152 192.457C627.236 193.158 629.58 194.018 631.003 196.399L631.043 196.46V196.56C631.063 208.586 631.103 223.274 631.143 239.123V239.163V239.423L630.963 239.563C626.274 243.065 620.604 244.266 615.314 244.266C612.669 244.266 610.065 243.986 607.6 243.345C605.156 242.665 602.791 241.744 600.988 239.843L600.888 239.743V239.563C601.048 226.896 601.189 216.17 601.289 208.486C601.369 204.784 601.429 201.842 601.489 199.681C601.529 198.741 601.549 197.98 601.569 197.36C601.589 196.82 601.629 196.56 601.649 196.56Z" fill="white"/>
<path d="M630.602 196.639C630.662 196.739 629.34 197.88 626.815 199.141C624.29 200.442 620.343 201.362 616.055 201.302C611.768 201.342 607.8 200.662 605.236 199.421C602.651 198.22 601.309 197.12 601.369 197.02C601.449 196.86 602.951 197.76 605.516 198.741C608.061 199.761 611.828 200.301 616.055 200.261C620.263 200.301 624.01 199.561 626.515 198.48C629.039 197.42 630.522 196.479 630.602 196.639Z" fill="white"/>
<path d="M630.602 207.266C630.662 207.366 629.34 208.506 626.815 209.767C624.29 211.068 620.343 211.988 616.055 211.928C611.768 211.968 607.8 211.288 605.236 210.047C602.651 208.846 601.309 207.746 601.369 207.646C601.449 207.486 602.951 208.386 605.516 209.367C608.061 210.387 611.828 210.928 616.055 210.888C620.263 210.928 624.01 210.187 626.515 209.107C629.039 208.046 630.522 207.126 630.602 207.266Z" fill="white"/>
<path d="M630.602 217.911C630.662 218.011 629.34 219.152 626.815 220.413C624.29 221.713 620.343 222.634 616.055 222.574C611.768 222.614 607.8 221.933 605.236 220.693C602.651 219.492 601.309 218.391 601.369 218.291C601.449 218.131 602.951 219.032 605.516 220.012C608.061 221.033 611.828 221.573 616.055 221.533C620.263 221.573 624.01 220.833 626.515 219.752C629.039 218.672 630.522 217.751 630.602 217.911Z" fill="white"/>
<path d="M630.602 228.537C630.662 228.637 629.34 229.778 626.815 231.038C624.29 232.339 620.343 233.259 616.055 233.199C611.768 233.239 607.8 232.559 605.236 231.318C602.651 230.118 601.309 229.017 601.369 228.917C601.449 228.757 602.951 229.658 605.516 230.638C608.061 231.659 611.828 232.199 616.055 232.159C620.263 232.199 624.01 231.458 626.515 230.378C629.039 229.317 630.522 228.377 630.602 228.537Z" fill="white"/>
<path d="M630.742 174.768C630.762 174.768 630.802 175.208 630.822 176.028C630.842 176.929 630.863 178.109 630.883 179.63C630.903 182.852 630.923 187.395 630.963 193.058C630.963 204.604 630.963 220.753 630.943 239.563L630.843 239.263C632.325 240.844 634.71 241.844 637.054 242.425C639.438 243.025 641.983 243.265 644.547 243.265C649.617 243.245 655.107 241.985 659.334 238.803L659.154 239.203V239.163C659.214 214.309 659.254 191.677 659.294 174.788L659.314 174.928C658.854 174.007 657.872 173.227 656.93 172.666C655.968 172.086 654.926 171.706 653.905 171.366C651.841 170.745 649.777 170.485 647.874 170.345C644.027 170.125 640.68 170.385 638.036 170.946C635.391 171.526 633.467 172.466 632.305 173.307C631.724 173.727 631.343 174.107 631.083 174.367C630.863 174.608 630.762 174.768 630.742 174.768C630.722 174.768 630.802 174.588 631.023 174.287C631.243 173.987 631.624 173.587 632.185 173.127C633.327 172.206 635.271 171.186 637.955 170.525C640.64 169.885 644.027 169.565 647.934 169.725C649.877 169.825 651.981 170.065 654.145 170.685C656.249 171.366 658.633 172.246 660.076 174.628L660.096 174.668V174.768C660.136 191.657 660.176 214.289 660.236 239.143V239.183V239.443L660.056 239.583C655.447 243.045 649.857 244.246 644.588 244.286C641.943 244.286 639.338 244.046 636.833 243.405C634.349 242.745 631.924 241.824 630.081 239.863L629.981 239.763V239.563C630.141 220.713 630.281 204.524 630.382 192.938C630.462 187.275 630.542 182.752 630.582 179.53C630.622 178.029 630.662 176.849 630.682 175.968C630.682 175.168 630.722 174.748 630.742 174.768Z" fill="white"/>
<path d="M659.695 196.639C659.755 196.739 658.433 197.88 655.908 199.141C653.384 200.442 649.436 201.362 645.149 201.302C640.861 201.342 636.894 200.662 634.329 199.421C631.744 198.22 630.402 197.12 630.462 197.02C630.542 196.86 632.045 197.76 634.609 198.741C637.154 199.761 640.921 200.301 645.149 200.261C649.356 200.301 653.103 199.561 655.608 198.48C658.132 197.42 659.615 196.479 659.695 196.639Z" fill="white"/>
<path d="M659.695 207.266C659.755 207.366 658.433 208.506 655.908 209.767C653.384 211.068 649.436 211.988 645.149 211.928C640.861 211.968 636.894 211.288 634.329 210.047C631.744 208.846 630.402 207.746 630.462 207.646C630.542 207.486 632.045 208.386 634.609 209.367C637.154 210.387 640.921 210.928 645.149 210.888C649.356 210.928 653.103 210.187 655.608 209.107C658.132 208.046 659.615 207.126 659.695 207.266Z" fill="white"/>
<path d="M659.695 185.733C659.755 185.833 658.433 186.974 655.908 188.235C653.384 189.535 649.436 190.456 645.149 190.396C640.861 190.436 636.894 189.756 634.329 188.515C631.744 187.314 630.402 186.214 630.462 186.114C630.542 185.954 632.045 186.854 634.609 187.835C637.154 188.855 640.921 189.395 645.149 189.355C649.356 189.395 653.103 188.655 655.608 187.574C658.132 186.514 659.615 185.593 659.695 185.733Z" fill="white"/>
<path d="M659.695 174.768C659.755 174.868 658.433 176.008 655.908 177.269C653.384 178.57 649.436 179.49 645.149 179.43C640.861 179.47 636.894 178.79 634.329 177.549C631.744 176.349 630.402 175.248 630.462 175.148C630.542 174.988 632.045 175.888 634.609 176.869C637.154 177.889 640.921 178.43 645.149 178.39C649.356 178.43 653.103 177.689 655.608 176.609C658.132 175.528 659.615 174.608 659.695 174.768Z" fill="white"/>
<path d="M659.695 217.911C659.755 218.011 658.433 219.152 655.908 220.413C653.384 221.713 649.436 222.634 645.149 222.574C640.861 222.614 636.894 221.933 634.329 220.693C631.744 219.492 630.402 218.391 630.462 218.291C630.542 218.131 632.045 219.032 634.609 220.012C637.154 221.033 640.921 221.573 645.149 221.533C649.356 221.573 653.103 220.833 655.608 219.752C658.132 218.672 659.615 217.751 659.695 217.911Z" fill="white"/>
<path d="M659.695 228.537C659.755 228.637 658.433 229.778 655.908 231.038C653.384 232.339 649.436 233.259 645.149 233.199C640.861 233.239 636.894 232.559 634.329 231.318C631.744 230.118 630.402 229.017 630.462 228.917C630.542 228.757 632.045 229.658 634.609 230.638C637.154 231.659 640.921 232.199 645.149 232.159C649.356 232.199 653.103 231.458 655.608 230.378C658.132 229.317 659.615 228.377 659.695 228.537Z" fill="white"/>
<path d="M281.906 272.341H108.168C99.7329 272.341 92.8804 265.518 92.8804 257.073V156.618C92.8804 148.193 99.7129 141.35 108.168 141.35H281.906C290.341 141.35 297.193 148.173 297.193 156.618V257.093C297.173 265.518 290.341 272.341 281.906 272.341Z" fill="#F5F5F5"/>
<path d="M149.364 165.483H116.063V177.59H149.364V165.483Z" fill="#E0E0E0"/>
<path d="M156.296 202.383C156.296 203.084 145.737 203.644 132.713 203.644C119.689 203.644 109.13 203.084 109.13 202.383C109.13 201.683 119.689 201.123 132.713 201.123C145.737 201.123 156.296 201.683 156.296 202.383Z" fill="#E0E0E0"/>
<path d="M188.575 202.383C188.575 203.084 183.306 203.644 176.794 203.644C170.282 203.644 165.012 203.084 165.012 202.383C165.012 201.683 170.282 201.123 176.794 201.123C183.286 201.123 188.575 201.683 188.575 202.383Z" fill="#E0E0E0"/>
<path d="M276.275 202.383C276.275 203.084 268.381 203.644 258.663 203.644C248.925 203.644 241.051 203.084 241.051 202.383C241.051 201.683 248.925 201.123 258.663 201.123C268.381 201.123 276.275 201.683 276.275 202.383Z" fill="#E0E0E0"/>
<path d="M232.716 202.383C232.716 203.084 225.102 203.644 215.705 203.644C206.308 203.644 198.694 203.084 198.694 202.383C198.694 201.683 206.308 201.123 215.705 201.123C225.102 201.123 232.716 201.683 232.716 202.383Z" fill="#E0E0E0"/>
<path d="M144.855 231.739C144.855 232.44 137.061 233 127.444 233C117.826 233 110.032 232.44 110.032 231.739C110.032 231.039 117.826 230.479 127.444 230.479C137.061 230.479 144.855 231.039 144.855 231.739Z" fill="#E0E0E0"/>
<path d="M174.429 244.226C174.429 244.926 160.023 245.487 142.231 245.487C124.438 245.487 110.032 244.926 110.032 244.226C110.032 243.526 124.438 242.965 142.231 242.965C160.003 242.985 174.429 243.546 174.429 244.226Z" fill="#E0E0E0"/>
<path d="M276.275 244.226C276.275 244.926 270.184 245.487 262.67 245.487C255.157 245.487 249.045 244.926 249.045 244.226C249.045 243.526 255.137 242.965 262.67 242.965C270.164 242.985 276.275 243.546 276.275 244.226Z" fill="#E0E0E0"/>
<path d="M429.134 238.023V241.364H426.149V238.123C423.183 237.943 420.358 237.022 418.715 235.741L420.358 232.099C421.861 233.2 424.005 234 426.149 234.221V229.238C422.823 228.437 419.136 227.337 419.136 223.054C419.136 219.893 421.44 217.171 426.149 216.631V213.329H429.134V216.571C431.378 216.751 433.562 217.351 435.205 218.392L433.703 222.054C432.18 221.193 430.617 220.673 429.134 220.493V225.556C432.46 226.336 436.087 227.437 436.087 231.639C436.107 234.781 433.823 237.462 429.134 238.023ZM426.149 224.835V220.593C424.566 220.953 423.945 221.814 423.945 222.794C423.945 223.855 424.847 224.415 426.149 224.835ZM431.298 232.039C431.298 230.999 430.437 230.438 429.154 229.978V234.1C430.637 233.76 431.298 232.98 431.298 232.039Z" fill="white"/>
<path d="M455.3 231.218C455.3 234.921 452.575 238.142 446.604 238.142C443.699 238.142 440.654 237.342 438.63 235.901L440.533 232.199C442.116 233.4 444.3 234.08 446.484 234.08C448.909 234.08 450.391 233.059 450.391 231.359C450.391 229.718 449.309 228.637 445.522 228.637H440.173L441.255 216.891H454.018V220.773H445.302L444.981 224.735H446.685C452.856 224.755 455.3 227.516 455.3 231.218Z" fill="white"/>
<path d="M459 227.357C459 220.473 462.827 216.551 467.956 216.551C473.126 216.551 476.913 220.453 476.913 227.357C476.913 234.24 473.126 238.163 467.956 238.163C462.807 238.143 459 234.24 459 227.357ZM472.044 227.357C472.044 222.614 470.381 220.653 467.956 220.653C465.572 220.653 463.889 222.614 463.889 227.357C463.889 232.099 465.552 234.06 467.956 234.06C470.381 234.06 472.044 232.099 472.044 227.357Z" fill="white"/>
<path d="M481 227.357C481 220.473 484.827 216.551 489.956 216.551C495.126 216.551 498.913 220.453 498.913 227.357C498.913 234.24 495.126 238.163 489.956 238.163C484.827 238.143 481 234.24 481 227.357ZM494.064 227.357C494.064 222.614 492.401 220.653 489.976 220.653C487.592 220.653 485.909 222.614 485.909 227.357C485.909 232.099 487.572 234.06 489.976 234.06C492.381 234.06 494.064 232.099 494.064 227.357Z" fill="white"/>
<path d="M664.564 531.623C664.564 531.623 664.925 531.583 665.626 531.543C666.328 531.543 667.37 531.383 668.732 531.143C671.377 530.543 675.484 529.142 679.251 525.2C681.095 523.259 682.778 520.677 683.82 517.516C684.3 515.935 684.681 514.234 684.741 512.413C684.841 510.612 684.761 508.691 684.781 506.73C684.761 498.825 684.761 489.72 684.741 479.455C684.721 458.923 684.681 433.81 684.661 404.654C684.641 390.066 684.641 374.477 684.621 357.948C684.621 349.684 684.601 341.179 684.601 332.454C684.601 328.092 684.601 323.669 684.601 319.187C684.581 316.966 684.661 314.664 684.501 312.463C684.26 310.242 683.659 308.061 682.698 306.02C680.814 301.917 677.428 298.475 673.26 296.514C671.176 295.514 668.912 294.874 666.608 294.633C664.304 294.453 661.859 294.573 659.475 294.533C649.858 294.533 640.04 294.553 630.001 294.553C609.945 294.553 589.086 294.573 567.467 294.573C524.248 294.593 478.084 294.613 429.495 294.613C332.318 294.633 225.483 294.633 113.358 294.653C109.952 294.693 106.525 295.534 103.58 297.215C100.635 298.896 98.0899 301.317 96.3668 304.239C94.5835 307.12 93.6418 310.502 93.5416 313.864C93.4815 317.306 93.5216 320.788 93.5216 324.23C93.5216 338.057 93.5216 351.805 93.5216 365.432C93.5216 392.707 93.5216 419.582 93.5216 445.996C93.5216 459.204 93.5216 472.291 93.5216 485.258C93.5216 491.741 93.5216 498.185 93.5216 504.609V509.411C93.5216 511.032 93.5015 512.593 93.762 514.114C94.2229 517.175 95.3449 520.177 97.1883 522.678C98.9916 525.2 101.356 527.321 104.081 528.742C106.806 530.163 109.871 530.963 112.937 531.023C119.229 531.023 125.48 531.043 131.691 531.043C144.134 531.043 156.436 531.043 168.579 531.043C265.756 531.083 353.276 531.123 426.79 531.163C500.284 531.243 559.753 531.283 600.868 531.323C621.406 531.363 637.355 531.403 648.194 531.423C653.604 531.443 657.712 531.463 660.497 531.483C663.142 531.583 664.564 531.623 664.564 531.623C664.564 531.623 663.142 531.663 660.377 531.683C657.592 531.703 653.464 531.703 648.074 531.743C637.234 531.763 621.285 531.803 600.748 531.843C559.633 531.883 500.164 531.944 426.67 532.004C353.176 532.044 265.656 532.064 168.458 532.124C156.316 532.124 144.014 532.124 131.571 532.124C125.34 532.124 119.088 532.104 112.797 532.104C109.571 532.024 106.365 531.203 103.5 529.702C100.635 528.181 98.15 525.96 96.2466 523.319C94.323 520.677 93.1208 517.556 92.64 514.314C92.3795 512.693 92.3995 511.032 92.3995 509.451V504.649C92.3995 498.225 92.3995 491.782 92.3995 485.298C92.3995 472.331 92.3995 459.244 92.3995 446.036C92.3995 419.622 92.3995 392.747 92.3995 365.472C92.3995 351.825 92.3995 338.097 92.3995 324.27C92.4196 320.808 92.3795 317.366 92.4196 313.864C92.5398 310.322 93.5015 306.76 95.385 303.718C97.2083 300.637 99.8732 298.095 102.979 296.314C106.085 294.533 109.691 293.633 113.278 293.613C225.402 293.633 332.237 293.633 429.415 293.653C478.004 293.673 524.168 293.693 567.387 293.693C588.986 293.713 609.865 293.713 629.921 293.713C639.959 293.713 649.777 293.733 659.395 293.733C661.799 293.773 664.164 293.653 666.608 293.833C669.013 294.093 671.377 294.753 673.521 295.794C677.849 297.855 681.355 301.417 683.299 305.679C684.28 307.801 684.901 310.062 685.162 312.363C685.322 314.684 685.242 316.906 685.262 319.147C685.262 323.629 685.262 328.052 685.262 332.414C685.262 341.139 685.242 349.644 685.242 357.908C685.222 374.437 685.222 390.026 685.202 404.614C685.162 433.77 685.142 458.883 685.122 479.415C685.102 489.68 685.082 498.785 685.082 506.69C685.062 508.671 685.122 510.552 685.022 512.393C684.962 514.234 684.561 515.955 684.06 517.556C682.998 520.737 681.275 523.339 679.411 525.3C675.604 529.242 671.437 530.623 668.772 531.183C667.41 531.403 666.368 531.543 665.646 531.543C664.925 531.623 664.564 531.623 664.564 531.623Z" fill="#E0E0E0"/>
<path d="M293.146 441.974H273.911V518.236H293.146V441.974Z" fill="#EBEBEB"/>
<path d="M321.959 465.047H302.724V518.236H321.959V465.047Z" fill="#EBEBEB"/>
<path d="M265.536 465.047H246.301V518.236H265.536V465.047Z" fill="#EBEBEB"/>
<path d="M209.093 511.152H189.857V518.236H209.093V511.152Z" fill="#EBEBEB"/>
<path d="M237.705 500.466H218.47V518.236H237.705V500.466Z" fill="#EBEBEB"/>
<path d="M181.562 512.333H162.327V518.236H181.562V512.333Z" fill="#EBEBEB"/>
<path d="M152.67 512.333H133.435V518.236H152.67V512.333Z" fill="#EBEBEB"/>
<path d="M352.294 475.753H333.059V518.236H352.294V475.753Z" fill="#EBEBEB"/>
<path d="M382.63 487.419H363.395V518.236H382.63V487.419Z" fill="#EBEBEB"/>
<path d="M412.985 465.047H393.75V518.236H412.985V465.047Z" fill="#EBEBEB"/>
<path d="M443.321 431.829H424.085V518.236H443.321V431.829Z" fill="#EBEBEB"/>
<path d="M473.656 406.255H454.421V518.236H473.656V406.255Z" fill="#EBEBEB"/>
<path d="M503.991 441.974H484.756V518.236H503.991V441.974Z" fill="#EBEBEB"/>
<path d="M534.346 373.497H515.111V518.216H534.346V373.497Z" fill="#EBEBEB"/>
<path d="M564.682 441.974H545.447V518.236H564.682V441.974Z" fill="#EBEBEB"/>
<path d="M595.017 465.047H575.782V518.236H595.017V465.047Z" fill="#EBEBEB"/>
<path d="M625.353 475.032H606.118V518.236H625.353V475.032Z" fill="#EBEBEB"/>
<path d="M655.708 487.419H636.473V518.236H655.708V487.419Z" fill="#EBEBEB"/>
<path d="M149.223 518.236C149.223 518.236 149.865 518.196 151.107 518.176C152.389 518.156 154.233 518.156 156.657 518.116C161.566 518.096 168.739 518.056 177.996 518.016C180.32 518.016 182.765 517.996 185.329 517.996C187.914 518.016 190.579 517.956 193.364 517.595C198.914 516.875 204.865 515.034 210.375 511.532C213.14 509.791 215.725 507.57 217.969 504.909C220.153 502.227 221.636 498.885 223.218 495.543C226.224 488.74 228.949 481.356 231.734 473.571C234.459 465.767 237.304 457.583 240.29 449.058C241.792 444.796 243.315 440.453 245.078 436.091C246.902 431.748 248.965 427.386 251.65 423.284C254.355 419.202 257.601 415.359 261.488 412.078C265.355 408.796 269.864 406.114 274.773 404.313C279.682 402.492 285.011 401.632 290.401 401.572C295.771 401.552 301.241 402.032 306.571 403.553C309.256 404.253 311.84 405.334 314.365 406.555C316.809 407.895 319.254 409.376 321.378 411.257C325.766 414.899 329.152 419.662 331.817 424.765C334.522 429.907 336.065 435.55 337.868 441.094C339.631 446.657 341.374 452.28 343.338 457.903C347.285 469.069 351.793 480.415 358.666 490.541C362.112 495.563 366.24 500.266 371.469 503.508C374.034 505.169 376.959 506.269 379.965 506.87C381.467 507.23 383.01 507.25 384.553 507.33C386.116 507.25 387.679 507.31 389.222 507.09C393.449 506.71 397.617 505.689 401.304 503.688C404.99 501.707 407.976 498.665 410.42 495.283C412.845 491.881 414.868 488.199 416.932 484.557C418.996 480.935 420.799 477.193 422.442 473.411C429.014 458.263 433.102 442.474 439.233 427.906C442.138 420.582 445.124 413.358 448.911 406.655C452.637 399.931 457.306 393.828 462.696 388.685C465.401 386.143 468.246 383.702 471.452 381.881C474.577 379.92 478.004 378.619 481.41 377.439C488.303 375.297 495.436 374.617 502.308 374.897C509.201 375.197 515.893 376.498 522.084 378.759C528.276 381.041 533.866 384.462 538.514 388.625C547.911 396.909 554.724 406.615 562.498 414.319C570.172 422.163 579.689 426.646 588.505 429.547C597.422 432.429 605.917 433.709 613.491 434.31H613.471C628.799 434.37 640.641 434.41 648.675 434.43C652.663 434.45 655.688 434.49 657.752 434.49C659.796 434.51 660.838 434.55 660.838 434.55C660.838 434.55 659.796 434.59 657.752 434.61C655.688 434.63 652.643 434.65 648.675 434.67C640.641 434.69 628.819 434.73 613.471 434.79C605.857 434.23 597.302 432.989 588.325 430.127C579.429 427.226 569.791 422.743 561.997 414.819C554.143 407.095 547.29 397.41 537.973 389.225C533.365 385.123 527.875 381.781 521.784 379.54C515.673 377.319 509.06 376.058 502.268 375.778C495.476 375.518 488.443 376.178 481.69 378.299C474.918 380.42 468.587 384.142 463.357 389.345C458.047 394.428 453.459 400.451 449.752 407.115C446.025 413.759 443.04 420.942 440.155 428.266C434.043 442.794 429.996 458.543 423.364 473.811C421.701 477.614 419.878 481.396 417.794 485.038C415.73 488.68 413.706 492.382 411.222 495.864C408.737 499.305 405.612 502.507 401.765 504.568C397.917 506.649 393.61 507.71 389.282 508.09C387.699 508.31 386.096 508.25 384.513 508.33C382.91 508.25 381.287 508.23 379.724 507.85C376.599 507.23 373.533 506.069 370.868 504.348C365.478 500.966 361.251 496.164 357.764 491.081C350.811 480.815 346.283 469.409 342.336 458.183C340.372 452.56 338.609 446.917 336.866 441.354C335.063 435.791 333.52 430.208 330.895 425.185C328.27 420.162 324.964 415.52 320.696 411.978C318.633 410.137 316.248 408.716 313.864 407.395C311.399 406.214 308.895 405.134 306.27 404.453C301.061 402.953 295.651 402.472 290.361 402.492C285.091 402.552 279.862 403.373 275.053 405.154C265.335 408.656 257.621 415.72 252.332 423.744C247.002 431.848 244.057 440.853 241.011 449.318C238.005 457.843 235.14 466.007 232.395 473.811C229.59 481.596 226.825 488.98 223.8 495.804C222.217 499.165 220.714 502.527 218.43 505.309C216.126 508.01 213.501 510.271 210.676 512.012C205.045 515.554 199.014 517.375 193.404 518.076C190.599 518.436 187.874 518.476 185.309 518.436C182.745 518.436 180.3 518.416 177.976 518.416C168.739 518.376 161.546 518.336 156.637 518.316C154.212 518.296 152.369 518.276 151.087 518.256C149.865 518.256 149.223 518.236 149.223 518.236Z" fill="#1C3041"/>
<path d="M335.203 341.139H227.066C225.362 341.139 224 342.519 224 344.2V381.361C224 383.062 225.383 384.422 227.066 384.422H281.806C282.667 384.422 283.489 384.783 284.07 385.423C285.773 387.324 288.077 389.785 289.76 391.586C290.982 392.887 293.066 392.887 294.268 391.546L299.839 385.423C300.42 384.783 301.241 384.422 302.103 384.422H335.183C336.886 384.422 338.249 383.042 338.249 381.361V344.2C338.269 342.499 336.886 341.139 335.203 341.139Z" fill="#0D7ABE"/>
<path d="M217.027 446.937H126.882C125.881 446.937 125.059 447.757 125.059 448.758V470.85C125.059 471.851 125.881 472.671 126.882 472.671H159.442C159.963 472.671 160.444 472.891 160.784 473.271C161.806 474.392 163.169 475.873 164.171 476.933C164.892 477.714 166.134 477.694 166.855 476.913L170.161 473.271C170.502 472.891 171.003 472.671 171.504 472.671H217.007C218.009 472.671 218.83 471.851 218.83 470.85V448.758C218.85 447.757 218.029 446.937 217.027 446.937Z" fill="#F5F5F5"/>
<path d="M296.072 401.672C296.072 403.993 294.188 405.874 291.864 405.874C289.54 405.874 287.656 403.993 287.656 401.672C287.656 399.351 289.54 397.47 291.864 397.47C294.188 397.47 296.072 399.351 296.072 401.672Z" fill="#1C3041"/>
<path d="M291.864 405.934C289.519 405.934 287.596 404.033 287.596 401.672C287.596 399.331 289.499 397.41 291.864 397.41C294.208 397.41 296.132 399.311 296.132 401.672C296.111 404.013 294.208 405.934 291.864 405.934ZM291.864 397.51C289.56 397.51 287.696 399.371 287.696 401.672C287.696 403.973 289.56 405.834 291.864 405.834C294.148 405.834 296.031 403.973 296.031 401.672C296.031 399.371 294.148 397.51 291.864 397.51Z" fill="#1C3041"/>
<path d="M260.432 369.735V371.796H258.588V369.795C256.765 369.675 255.022 369.114 254 368.334L255.002 366.093C255.924 366.773 257.246 367.273 258.568 367.393V364.332C256.525 363.831 254.24 363.151 254.24 360.53C254.24 358.589 255.663 356.908 258.568 356.567V354.526H260.412V356.527C261.794 356.648 263.137 357.008 264.139 357.648L263.217 359.909C262.275 359.369 261.313 359.069 260.392 358.949V362.071C262.435 362.551 264.679 363.231 264.679 365.813C264.72 367.734 263.317 369.375 260.432 369.735ZM258.588 361.61V359.009C257.607 359.229 257.226 359.769 257.226 360.37C257.226 361.01 257.787 361.35 258.588 361.61ZM261.754 366.033C261.754 365.392 261.213 365.032 260.432 364.772V367.313C261.353 367.113 261.754 366.633 261.754 366.033Z" fill="white"/>
<path d="M282.712 365.532C282.712 367.814 281.029 369.795 277.363 369.795C275.579 369.795 273.696 369.294 272.454 368.414L273.636 366.133C274.618 366.873 275.96 367.293 277.302 367.293C278.785 367.293 279.707 366.673 279.707 365.612C279.707 364.612 279.046 363.931 276.701 363.931H273.415L274.077 356.688H281.931V359.069H276.561L276.361 361.51H277.403C281.21 361.55 282.712 363.271 282.712 365.532Z" fill="white"/>
<path d="M285.006 363.151C285.006 358.909 287.37 356.487 290.536 356.487C293.722 356.487 296.066 358.889 296.066 363.151C296.066 367.393 293.722 369.815 290.536 369.815C287.37 369.815 285.006 367.393 285.006 363.151ZM293.041 363.151C293.041 360.229 292.019 359.009 290.516 359.009C289.033 359.009 288.011 360.229 288.011 363.151C288.011 366.073 289.033 367.293 290.516 367.293C292.019 367.293 293.041 366.073 293.041 363.151Z" fill="white"/>
<path d="M297.509 363.151C297.509 358.909 299.873 356.487 303.039 356.487C306.224 356.487 308.569 358.889 308.569 363.151C308.569 367.393 306.224 369.815 303.039 369.815C299.853 369.815 297.509 367.393 297.509 363.151ZM305.543 363.151C305.543 360.229 304.521 359.009 303.019 359.009C301.536 359.009 300.514 360.229 300.514 363.151C300.514 366.073 301.536 367.293 303.019 367.293C304.521 367.293 305.543 366.073 305.543 363.151Z" fill="white"/>
<path d="M716.94 102.168H54.5903V76.8342C54.5903 70.2306 59.9401 64.8877 66.5522 64.8877H704.978C711.59 64.8877 716.94 70.2306 716.94 76.8342V102.168Z" fill="#263238"/>
<path d="M78.5944 89.3607C81.5379 89.3607 83.9241 86.9775 83.9241 84.0378C83.9241 81.098 81.5379 78.7148 78.5944 78.7148C75.6509 78.7148 73.2646 81.098 73.2646 84.0378C73.2646 86.9775 75.6509 89.3607 78.5944 89.3607Z" fill="#F5F5F5"/>
<path d="M95.2047 89.3607C98.1483 89.3607 100.534 86.9775 100.534 84.0378C100.534 81.098 98.1483 78.7148 95.2047 78.7148C92.2612 78.7148 89.875 81.098 89.875 84.0378C89.875 86.9775 92.2612 89.3607 95.2047 89.3607Z" fill="#F5F5F5"/>
<path d="M111.815 89.3607C114.758 89.3607 117.145 86.9775 117.145 84.0378C117.145 81.098 114.758 78.7148 111.815 78.7148C108.871 78.7148 106.485 81.098 106.485 84.0378C106.485 86.9775 108.871 89.3607 111.815 89.3607Z" fill="#F5F5F5"/>
<path d="M427.348 185.708H423.753V196H420.905V185.708H417.328V183.396H427.348V185.708ZM431.353 196.22C429.853 196.22 428.673 195.801 427.811 194.963C426.956 194.119 426.528 192.977 426.528 191.535C426.528 190.047 426.974 188.884 427.864 188.046C428.755 187.202 429.959 186.78 431.477 186.78C432.971 186.78 434.143 187.202 434.992 188.046C435.842 188.884 436.267 189.994 436.267 191.377C436.267 192.871 435.827 194.052 434.948 194.919C434.075 195.786 432.877 196.22 431.353 196.22ZM431.424 188.907C430.768 188.907 430.258 189.133 429.894 189.584C429.531 190.035 429.35 190.674 429.35 191.5C429.35 193.229 430.047 194.093 431.441 194.093C432.771 194.093 433.436 193.205 433.436 191.43C433.436 189.748 432.766 188.907 431.424 188.907ZM446.785 196H444.008V194.761H443.972C443.34 195.733 442.411 196.22 441.186 196.22C440.061 196.22 439.156 195.824 438.471 195.033C437.785 194.236 437.442 193.126 437.442 191.702C437.442 190.214 437.82 189.021 438.576 188.125C439.332 187.229 440.322 186.78 441.547 186.78C442.707 186.78 443.515 187.196 443.972 188.028H444.008V182.676H446.785V196ZM444.06 191.623V190.946C444.06 190.36 443.89 189.874 443.551 189.487C443.211 189.101 442.768 188.907 442.223 188.907C441.608 188.907 441.128 189.15 440.782 189.637C440.436 190.117 440.263 190.779 440.263 191.623C440.263 192.414 440.43 193.023 440.764 193.451C441.098 193.879 441.561 194.093 442.153 194.093C442.716 194.093 443.173 193.867 443.524 193.416C443.882 192.965 444.06 192.367 444.06 191.623ZM456.521 196H453.893V194.708H453.858C453.255 195.716 452.361 196.22 451.177 196.22C450.304 196.22 449.616 195.974 449.112 195.481C448.614 194.983 448.365 194.321 448.365 193.495C448.365 191.749 449.399 190.741 451.467 190.472L453.911 190.146C453.911 189.162 453.378 188.67 452.311 188.67C451.239 188.67 450.219 188.989 449.253 189.628V187.536C449.639 187.337 450.167 187.161 450.835 187.009C451.508 186.856 452.121 186.78 452.672 186.78C455.238 186.78 456.521 188.061 456.521 190.621V196ZM453.911 192.344V191.737L452.276 191.948C451.374 192.065 450.922 192.473 450.922 193.17C450.922 193.486 451.031 193.747 451.248 193.952C451.47 194.151 451.769 194.251 452.144 194.251C452.666 194.251 453.09 194.072 453.419 193.715C453.747 193.352 453.911 192.895 453.911 192.344ZM467.198 187L463.541 196.721C462.663 199.059 461.338 200.228 459.569 200.228C458.895 200.228 458.341 200.151 457.908 199.999V197.784C458.277 198.001 458.678 198.109 459.112 198.109C459.827 198.109 460.325 197.772 460.606 197.099L461.081 195.982L457.424 187H460.5L462.179 192.476C462.285 192.815 462.367 193.217 462.425 193.68H462.46C462.513 193.34 462.61 192.944 462.75 192.493L464.447 187H467.198ZM470.619 183.148L470.745 183.346C470.589 183.982 470.367 184.678 470.079 185.434C469.791 186.19 469.497 186.898 469.197 187.558H467.271C467.439 186.85 467.607 186.094 467.775 185.29C467.943 184.486 468.069 183.772 468.153 183.148H470.619ZM471.447 195.763V193.513C471.904 193.788 472.359 193.993 472.81 194.128C473.267 194.263 473.697 194.33 474.102 194.33C474.594 194.33 474.981 194.263 475.262 194.128C475.549 193.993 475.693 193.788 475.693 193.513C475.693 193.337 475.628 193.19 475.499 193.073C475.37 192.956 475.203 192.854 474.998 192.766C474.799 192.678 474.579 192.599 474.339 192.528C474.099 192.458 473.867 192.379 473.645 192.291C473.287 192.156 472.971 192.013 472.695 191.86C472.426 191.702 472.197 191.521 472.01 191.315C471.828 191.11 471.688 190.873 471.588 190.604C471.494 190.334 471.447 190.015 471.447 189.646C471.447 189.142 471.556 188.708 471.773 188.345C471.995 187.981 472.288 187.686 472.652 187.457C473.021 187.223 473.44 187.053 473.908 186.947C474.383 186.836 474.875 186.78 475.385 186.78C475.783 186.78 476.188 186.812 476.598 186.877C477.008 186.936 477.412 187.023 477.811 187.141V189.285C477.459 189.08 477.081 188.928 476.677 188.828C476.278 188.723 475.886 188.67 475.499 188.67C475.318 188.67 475.145 188.688 474.981 188.723C474.822 188.752 474.682 188.799 474.559 188.863C474.436 188.922 474.339 189.001 474.269 189.101C474.198 189.194 474.163 189.303 474.163 189.426C474.163 189.59 474.216 189.73 474.321 189.848C474.427 189.965 474.565 190.067 474.735 190.155C474.904 190.237 475.092 190.313 475.297 190.384C475.508 190.448 475.716 190.516 475.921 190.586C476.29 190.715 476.624 190.855 476.923 191.008C477.222 191.16 477.477 191.339 477.688 191.544C477.904 191.749 478.069 191.989 478.18 192.265C478.297 192.54 478.356 192.868 478.356 193.249C478.356 193.782 478.238 194.239 478.004 194.62C477.776 194.995 477.468 195.303 477.081 195.543C476.7 195.777 476.258 195.947 475.754 196.053C475.256 196.164 474.737 196.22 474.198 196.22C473.208 196.22 472.291 196.067 471.447 195.763ZM495.604 196H492.344L490.384 192.757C490.237 192.511 490.097 192.291 489.962 192.098C489.827 191.904 489.689 191.74 489.549 191.605C489.414 191.465 489.27 191.359 489.118 191.289C488.972 191.213 488.81 191.175 488.635 191.175H487.87V196H485.031V183.396H489.531C492.59 183.396 494.119 184.539 494.119 186.824C494.119 187.264 494.052 187.671 493.917 188.046C493.782 188.415 493.592 188.749 493.346 189.048C493.099 189.347 492.801 189.604 492.449 189.821C492.103 190.038 491.717 190.208 491.289 190.331V190.366C491.476 190.425 491.658 190.521 491.834 190.656C492.01 190.785 492.18 190.938 492.344 191.113C492.508 191.289 492.663 191.479 492.809 191.685C492.962 191.884 493.099 192.08 493.222 192.273L495.604 196ZM487.87 185.523V189.03H489.1C489.71 189.03 490.199 188.854 490.568 188.503C490.943 188.146 491.131 187.703 491.131 187.176C491.131 186.074 490.472 185.523 489.153 185.523H487.87ZM504.057 192.291H498.186C498.28 193.598 499.103 194.251 500.656 194.251C501.646 194.251 502.516 194.017 503.266 193.548V195.552C502.434 195.997 501.353 196.22 500.023 196.22C498.57 196.22 497.442 195.818 496.639 195.016C495.837 194.207 495.435 193.082 495.435 191.641C495.435 190.146 495.869 188.963 496.736 188.09C497.603 187.217 498.67 186.78 499.935 186.78C501.248 186.78 502.261 187.17 502.976 187.949C503.697 188.729 504.057 189.786 504.057 191.122V192.291ZM501.482 190.586C501.482 189.297 500.961 188.652 499.918 188.652C499.472 188.652 499.086 188.837 498.757 189.206C498.435 189.575 498.239 190.035 498.169 190.586H501.482ZM514.189 187L510.84 196H507.676L504.486 187H507.457L509.021 192.546C509.197 193.173 509.299 193.706 509.329 194.146H509.364C509.405 193.729 509.513 193.214 509.689 192.599L511.289 187H514.189ZM523.196 192.291H517.325C517.418 193.598 518.242 194.251 519.794 194.251C520.785 194.251 521.655 194.017 522.405 193.548V195.552C521.573 195.997 520.492 196.22 519.161 196.22C517.708 196.22 516.58 195.818 515.778 195.016C514.975 194.207 514.574 193.082 514.574 191.641C514.574 190.146 515.007 188.963 515.874 188.09C516.742 187.217 517.808 186.78 519.074 186.78C520.386 186.78 521.4 187.17 522.115 187.949C522.835 188.729 523.196 189.786 523.196 191.122V192.291ZM520.62 190.586C520.62 189.297 520.099 188.652 519.056 188.652C518.611 188.652 518.224 188.837 517.896 189.206C517.574 189.575 517.377 190.035 517.307 190.586H520.62ZM533.45 196H530.682V190.999C530.682 189.604 530.184 188.907 529.188 188.907C528.707 188.907 528.312 189.092 528.001 189.461C527.691 189.83 527.535 190.299 527.535 190.867V196H524.758V187H527.535V188.424H527.571C528.233 187.328 529.196 186.78 530.462 186.78C532.454 186.78 533.45 188.017 533.45 190.489V196ZM544.118 196H541.35V194.629H541.306C540.62 195.689 539.703 196.22 538.555 196.22C536.469 196.22 535.426 194.957 535.426 192.432V187H538.194V192.186C538.194 193.457 538.698 194.093 539.706 194.093C540.204 194.093 540.603 193.92 540.901 193.574C541.2 193.223 541.35 192.748 541.35 192.15V187H544.118V196ZM554.461 192.291H548.59C548.683 193.598 549.507 194.251 551.059 194.251C552.05 194.251 552.92 194.017 553.67 193.548V195.552C552.838 195.997 551.757 196.22 550.427 196.22C548.974 196.22 547.846 195.818 547.043 195.016C546.24 194.207 545.839 193.082 545.839 191.641C545.839 190.146 546.272 188.963 547.14 188.09C548.007 187.217 549.073 186.78 550.339 186.78C551.651 186.78 552.665 187.17 553.38 187.949C554.1 188.729 554.461 189.786 554.461 191.122V192.291ZM551.886 190.586C551.886 189.297 551.364 188.652 550.321 188.652C549.876 188.652 549.489 188.837 549.161 189.206C548.839 189.575 548.642 190.035 548.572 190.586H551.886Z" fill="white"/>
<defs>
<filter id="filter0_d" x="0.541016" y="0.000976562" width="701.548" height="535.632" filterUnits="userSpaceOnUse" color-interpolation-filters="sRGB">
<feFlood flood-opacity="0" result="BackgroundImageFix"/>
<feColorMatrix in="SourceAlpha" type="matrix" values="0 0 0 0 0 0 0 0 0 0 0 0 0 0 0 0 0 0 127 0"/>
<feOffset dx="4" dy="4"/>
<feGaussianBlur stdDeviation="10"/>
<feColorMatrix type="matrix" values="0 0 0 0 0 0 0 0 0 0 0 0 0 0 0 0 0 0 0.25 0"/>
<feBlend mode="normal" in2="BackgroundImageFix" result="effect1_dropShadow"/>
<feBlend mode="normal" in="SourceGraphic" in2="effect1_dropShadow" result="shape"/>
</filter>
<filter id="filter1_d" x="39.0513" y="49.8877" width="701.548" height="535.632" filterUnits="userSpaceOnUse" color-interpolation-filters="sRGB">
<feFlood flood-opacity="0" result="BackgroundImageFix"/>
<feColorMatrix in="SourceAlpha" type="matrix" values="0 0 0 0 0 0 0 0 0 0 0 0 0 0 0 0 0 0 127 0"/>
<feOffset dx="4" dy="4"/>
<feGaussianBlur stdDeviation="10"/>
<feColorMatrix type="matrix" values="0 0 0 0 0 0 0 0 0 0 0 0 0 0 0 0 0 0 0.25 0"/>
<feBlend mode="normal" in2="BackgroundImageFix" result="effect1_dropShadow"/>
<feBlend mode="normal" in="SourceGraphic" in2="effect1_dropShadow" result="shape"/>
</filter>
</defs>
</svg>
