<svg width="708" height="730" viewBox="0 0 708 730" fill="none" xmlns="http://www.w3.org/2000/svg">
<g filter="url(#filter0_d)">
<path d="M11.0789 734.954C34.4413 697.972 61.3028 662.695 95.6647 639.297C130.027 615.899 173.019 605.617 210.898 620.51C238.836 631.509 263.257 655.5 292.774 657.528C317.07 659.196 340.253 645.326 359.13 627.867C394.317 595.299 418.612 550.189 450.57 513.567C482.527 476.962 528.14 447.947 571.976 461.279C602.964 470.7 626.417 499.302 645.006 528.998C680.588 585.771 705.063 666.051 716.152 734.613L11.0789 734.954Z" fill="#EDF6FB"/>
<path d="M297.925 37.1301H440.468C440.468 37.1301 427.872 14.1986 391.177 17.5361C356.134 20.73 354.357 6.24974 336.539 4.47335C318.721 2.69696 303.864 16.3518 297.925 37.1301Z" fill="#EDF6FB"/>
<path d="M611.99 191.319H719.436C719.436 191.319 709.944 174.021 682.275 176.551C655.862 178.956 654.516 168.046 641.095 166.7C627.655 165.355 616.458 175.654 611.99 191.319Z" fill="#DCEDF7"/>
<path d="M4.38623 300.756H250.518C250.518 300.756 228.752 261.155 165.394 266.915C104.888 272.424 101.802 247.428 71.0465 244.36C40.2733 241.274 14.632 264.851 4.38623 300.756Z" fill="#C9E4F2"/>
<path d="M147.932 112.011C162.271 96.723 161.501 72.7062 146.213 58.3678C130.925 44.0294 106.908 44.7991 92.5699 60.0869C78.2315 75.3748 79.0012 99.3916 94.2891 113.73C109.577 128.068 133.594 127.299 147.932 112.011Z" fill="#DCEDF7"/>
<path d="M119.835 179.943C119.279 179.943 118.848 167.149 118.848 151.377C118.848 135.604 119.297 122.81 119.835 122.81C120.391 122.81 120.822 135.604 120.822 151.377C120.84 167.149 120.391 179.943 119.835 179.943Z" fill="#DCEDF7"/>
<path d="M213.249 83.9091C213.249 84.4653 199.935 84.8958 183.516 84.8958C167.098 84.8958 153.784 84.4473 153.784 83.9091C153.784 83.353 167.098 82.9224 183.516 82.9224C199.935 82.9045 213.249 83.353 213.249 83.9091Z" fill="#DCEDF7"/>
<path d="M120.247 0.561279C120.804 0.561279 121.234 12.2784 121.234 26.7229C121.234 41.1853 120.786 52.9024 120.247 52.9024C119.709 52.9024 119.26 41.1853 119.26 26.7229C119.26 12.2784 119.709 0.561279 120.247 0.561279Z" fill="#DCEDF7"/>
<path d="M93.9422 87.4618C93.9422 88.0181 79.8027 88.4488 62.3796 88.4488C44.9384 88.4488 30.8169 88.0002 30.8169 87.4618C30.8169 86.9055 44.9564 86.4749 62.3796 86.4749C79.8027 86.4749 93.9422 86.9055 93.9422 87.4618Z" fill="#DCEDF7"/>
<path d="M97.8899 68.1552C97.4951 68.55 89.5641 61.229 80.1616 51.8265C70.7592 42.4241 63.4562 34.493 63.833 34.0983C64.2278 33.7035 72.1588 41.0245 81.5612 50.4269C90.9637 59.8294 98.2667 67.7605 97.8899 68.1552Z" fill="#DCEDF7"/>
<path d="M172.643 34.6541C173.037 35.0309 167.421 41.3649 160.118 48.7935C152.797 56.2221 146.571 61.9281 146.176 61.5333C145.781 61.1565 151.397 54.8225 158.718 47.3939C166.003 39.9833 172.248 34.2773 172.643 34.6541Z" fill="#DCEDF7"/>
<path d="M176.142 140.305C175.747 140.7 168.049 133.612 158.934 124.497C149.818 115.382 142.731 107.666 143.125 107.272C143.52 106.877 151.218 113.964 160.351 123.08C169.449 132.213 176.536 139.928 176.142 140.305Z" fill="#DCEDF7"/>
<path d="M109.481 103.629C109.876 104.024 100.42 114.126 88.3616 126.202C76.3036 138.296 66.2193 147.77 65.8425 147.375C65.4477 146.981 74.904 136.878 86.962 124.803C99.0022 112.727 109.086 103.235 109.481 103.629Z" fill="#DCEDF7"/>
<path d="M169.054 484.283C178.187 489.217 189.581 485.144 193.529 475.544C195.682 470.322 197.405 466.07 197.405 466.07C197.405 466.07 210.593 470.753 217.304 458.659C224.015 446.583 236.988 417.515 236.988 417.515C226.168 403.86 208.817 397.131 191.627 399.93L189.079 400.343L161.41 461.71C157.642 470.053 160.979 479.922 169.054 484.283Z" fill="#C8CDD1"/>
<path d="M221.916 437.396C221.539 436.356 222.095 435.207 223.136 434.831C224.177 434.454 225.325 435.01 225.702 436.051C226.079 437.091 225.522 438.24 224.482 438.617C223.423 438.994 222.293 438.437 221.916 437.396Z" fill="#193546"/>
<path d="M227.352 435.368C227.047 435.476 226.348 433.915 224.679 433C223.028 432.067 221.324 432.3 221.252 431.977C221.216 431.833 221.611 431.564 222.364 431.439C223.1 431.313 224.212 431.421 225.235 431.995C226.276 432.569 226.94 433.448 227.227 434.148C227.532 434.848 227.496 435.333 227.352 435.368Z" fill="#193546"/>
<path d="M207.381 427.526C207.937 428.477 207.614 429.715 206.645 430.272C205.694 430.828 204.456 430.505 203.9 429.536C203.344 428.585 203.667 427.347 204.636 426.791C205.587 426.252 206.825 426.575 207.381 427.526Z" fill="#193546"/>
<path d="M209.05 427.077C208.745 427.185 208.045 425.624 206.376 424.709C204.725 423.776 203.021 424.01 202.949 423.687C202.913 423.543 203.308 423.256 204.061 423.148C204.797 423.023 205.909 423.131 206.932 423.705C207.973 424.279 208.637 425.158 208.924 425.858C209.229 426.557 209.193 427.042 209.05 427.077Z" fill="#193546"/>
<path d="M207.632 444.824C207.686 444.68 208.835 445.039 210.647 445.721C211.113 445.918 211.508 445.99 211.67 445.775C211.885 445.559 211.975 444.985 212.029 444.357C212.19 443.011 212.369 441.666 212.549 440.23C213.338 434.398 214.218 429.697 214.505 429.733C214.81 429.769 214.397 434.542 213.608 440.374C213.41 441.791 213.213 443.137 213.015 444.483C212.908 445.075 212.89 445.829 212.28 446.439C211.957 446.744 211.472 446.815 211.149 446.726C210.808 446.654 210.557 446.528 210.342 446.421C208.601 445.559 207.561 444.949 207.632 444.824Z" fill="#193546"/>
<path d="M197.531 465.909C197.531 465.909 189.51 462.392 184.109 452.846C184.109 452.846 183.14 463.63 195.862 469.085L197.531 465.909Z" fill="#A5AFB4"/>
<path d="M183.552 413.962C183.355 413.746 173.827 408.094 170.992 418.501C168.534 427.491 178.708 429.052 178.833 428.765C178.977 428.478 183.552 413.962 183.552 413.962Z" fill="#C8CDD1"/>
<path d="M177.003 423.473C176.967 423.437 176.824 423.527 176.519 423.545C176.232 423.563 175.783 423.491 175.388 423.15C174.599 422.486 174.366 420.763 174.904 419.184C175.173 418.395 175.604 417.713 176.106 417.193C176.608 416.654 177.165 416.367 177.649 416.457C178.152 416.529 178.367 416.905 178.385 417.193C178.403 417.48 178.295 417.623 178.331 417.659C178.349 417.695 178.564 417.587 178.636 417.21C178.672 417.031 178.636 416.78 178.493 416.547C178.349 416.295 178.08 416.098 177.739 416.026C177.057 415.829 176.232 416.224 175.675 416.78C175.083 417.336 174.563 418.09 174.276 418.987C173.684 420.745 173.989 422.683 175.083 423.509C175.622 423.886 176.196 423.886 176.537 423.778C176.914 423.688 177.039 423.509 177.003 423.473Z" fill="#A5AFB4"/>
<path d="M181.686 423.616C183.086 425.679 186.387 425.428 188.325 423.849C190.263 422.27 191.214 419.848 192.345 417.623C193.87 414.59 195.808 411.773 198.069 409.261C199.522 407.646 201.298 406.067 203.47 405.888C205.946 405.672 208.171 407.323 209.947 409.082C211.706 410.822 213.392 412.832 215.743 413.675C218.847 414.77 222.364 413.55 225.504 414.483C228.411 415.362 230.457 417.892 232.771 419.866C235.104 421.839 237.957 423.347 241.007 423.4C244.058 423.454 247.252 421.75 248.311 418.897C249.369 416.044 247.629 412.276 244.614 411.809C247.198 411.683 248.849 408.525 248.041 406.067C247.234 403.627 244.65 402.084 242.102 401.779C239.536 401.474 236.97 402.173 234.512 402.945C235.248 400.738 233.812 398.244 231.767 397.149C229.721 396.055 227.245 396.09 224.948 396.467C222.651 396.844 220.408 397.562 218.094 397.741C213.464 398.1 208.96 396.306 204.456 395.175C199.953 394.045 194.767 393.704 191.035 396.485C187.751 398.943 187.159 403.429 185.616 407.215C184.001 411.163 183.606 412.024 182.135 415.757C182.135 415.739 179.587 420.691 181.686 423.616Z" fill="#193546"/>
<path d="M206.879 450.602C206.843 450.728 206.251 450.71 205.425 450.315C204.6 449.92 203.523 449.095 202.842 447.821C202.142 446.547 202.034 445.202 202.16 444.287C202.285 443.372 202.59 442.869 202.698 442.905C202.985 442.959 202.501 445.148 203.721 447.355C204.905 449.544 207.005 450.351 206.879 450.602Z" fill="white"/>
<path d="M241.277 413.352C241.223 413.298 241.941 414.106 241.241 415.433C240.9 416.044 240.236 416.689 239.267 417.012C238.28 417.353 237.06 417.048 236.002 416.384C234.943 415.703 234.028 414.644 233.202 413.442C232.359 412.257 231.552 410.912 230.313 409.907C229.075 408.92 227.371 408.471 225.63 408.579C223.872 408.633 222.077 409.028 220.211 409.261C218.363 409.494 216.371 409.53 214.738 408.633C213.07 407.772 212.172 406.121 211.419 404.703C210.665 403.268 209.93 401.886 208.817 400.989C207.705 400.11 206.395 399.697 205.192 399.607C202.752 399.446 200.85 400.379 199.845 401.276C198.823 402.173 198.517 402.909 198.464 402.873C198.464 402.873 198.715 402.119 199.756 401.15C200.76 400.199 202.698 399.195 205.228 399.32C206.484 399.392 207.848 399.823 209.032 400.738C210.217 401.689 210.97 403.106 211.742 404.524C212.513 405.923 213.375 407.485 214.918 408.274C216.425 409.099 218.327 409.099 220.157 408.866C222.006 408.633 223.818 408.238 225.612 408.184C227.407 408.077 229.219 408.561 230.529 409.62C231.839 410.696 232.628 412.06 233.454 413.244C234.261 414.429 235.122 415.469 236.145 416.133C237.132 416.797 238.28 417.084 239.195 416.797C240.111 416.528 240.757 415.918 241.097 415.344C241.797 414.142 241.187 413.334 241.277 413.352Z" fill="#2D5F7C"/>
<path d="M238.711 404.201C238.711 404.201 238.872 404.075 239.231 404.039C239.59 404.004 240.146 404.147 240.613 404.65C241.115 405.116 241.367 406.121 240.828 406.982C240.344 407.826 239.231 408.472 237.993 408.346C236.755 408.256 235.553 407.538 234.53 406.587C233.489 405.654 232.556 404.488 231.246 403.698C229.955 402.855 228.268 402.909 226.689 403.447C225.092 403.932 223.477 404.793 221.575 404.793C219.637 404.811 218.094 403.519 216.928 402.335C215.725 401.115 214.649 399.894 213.339 399.105C210.719 397.454 207.812 397.095 205.515 397.472C203.201 397.849 201.514 398.818 200.455 399.571C199.397 400.343 198.93 400.917 198.894 400.881C198.894 400.881 199.325 400.271 200.366 399.446C201.406 398.638 203.111 397.598 205.462 397.185C207.794 396.754 210.809 397.113 213.518 398.782C214.9 399.589 216.012 400.863 217.197 402.048C218.363 403.232 219.799 404.398 221.575 404.38C223.333 404.38 224.93 403.555 226.563 403.053C228.16 402.496 230.062 402.442 231.426 403.358C232.808 404.201 233.741 405.403 234.745 406.318C235.732 407.251 236.863 407.933 238.011 408.041C239.142 408.166 240.164 407.592 240.631 406.839C241.133 406.067 240.936 405.188 240.487 404.721C240.075 404.237 239.554 404.075 239.213 404.075C238.89 404.129 238.729 404.237 238.711 404.201Z" fill="#2D5F7C"/>
<path d="M197.172 397.131C196.884 397.113 196.902 395.301 195.718 393.561C194.588 391.784 192.919 391.085 193.009 390.815C193.044 390.69 193.547 390.708 194.265 391.013C194.982 391.318 195.88 392 196.543 393.004C197.207 394.009 197.477 395.104 197.477 395.893C197.495 396.683 197.297 397.131 197.172 397.131Z" fill="#193546"/>
<path d="M199.935 387.173C200.168 387.352 198.93 389.074 198.194 391.515C197.423 393.937 197.459 396.054 197.172 396.09C196.92 396.144 196.418 393.883 197.261 391.228C198.051 388.572 199.755 386.993 199.935 387.173Z" fill="#193546"/>
<path d="M175.191 428.138C175.316 428.12 175.281 429.089 174.114 429.788C173.558 430.111 172.733 430.345 171.835 430.058C170.92 429.788 170.185 428.909 169.987 427.886C169.772 426.882 170.113 425.769 170.849 425.177C171.566 424.585 172.41 424.477 173.056 424.549C174.401 424.746 174.796 425.625 174.688 425.661C174.581 425.769 174.06 425.231 173.02 425.249C172.517 425.267 171.907 425.428 171.477 425.859C171.028 426.271 170.831 426.971 170.974 427.689C171.118 428.407 171.584 428.981 172.141 429.178C172.715 429.394 173.343 429.322 173.809 429.142C174.778 428.784 175.047 428.066 175.191 428.138Z" fill="#193546"/>
<path d="M181.651 419.47C181.579 419.542 181.256 417.766 182.763 415.666C183.463 414.572 184.898 413.872 186.334 413.136C187.052 412.76 187.751 412.293 188.218 411.575C188.666 410.858 188.864 409.96 189.025 409.045C189.294 407.179 189.923 405.367 190.963 404.057C191.986 402.711 193.439 401.957 194.695 401.796C195.969 401.599 196.992 401.922 197.602 402.263C198.212 402.603 198.446 402.944 198.446 402.944C198.428 402.98 198.141 402.693 197.531 402.406C196.92 402.119 195.934 401.868 194.731 402.083C193.547 402.263 192.201 402.998 191.25 404.29C190.263 405.564 189.671 407.269 189.42 409.135C189.259 410.068 189.061 411.019 188.541 411.809C188.02 412.616 187.231 413.1 186.513 413.477C185.042 414.213 183.696 414.823 183.014 415.846C182.279 416.815 181.938 417.766 181.794 418.43C181.615 419.094 181.686 419.47 181.651 419.47Z" fill="#2D5F7C"/>
<path d="M38.9278 722.556L59.1322 723.901L61.8776 686.077L32.3425 683.798L32.0195 686.131C30.6737 696.52 25.9546 739.081 27.5516 746.205C29.3639 754.172 38.9278 722.556 38.9278 722.556Z" fill="#328ED4"/>
<g opacity="0.4">
<g opacity="0.4">
<path opacity="0.4" d="M33.6879 737.968C33.6879 737.968 29.6147 749.004 27.8742 747.461C26.1157 745.917 29.2917 702.727 32.3601 683.814L33.2034 683.94L29.0764 734.29C29.0764 734.254 33.7597 735.761 33.6879 737.968Z" fill="white"/>
</g>
</g>
<path d="M33.2574 683.331C33.2395 683.331 33.2036 683.546 33.1318 683.977C33.0601 684.533 32.9703 685.143 32.8806 685.843C32.6653 687.709 32.3962 689.988 32.0732 692.698C31.4452 698.493 30.6736 706.496 30.0097 715.36C29.3458 724.224 28.9331 732.263 28.7178 738.095C28.628 740.804 28.5563 743.119 28.5024 744.985C28.4845 745.685 28.4845 746.295 28.4666 746.869C28.4666 747.3 28.4666 747.515 28.4845 747.515C28.5024 747.515 28.5204 747.3 28.5563 746.869C28.5922 746.313 28.628 745.685 28.6639 745.003C28.7716 743.137 28.8793 740.822 29.0228 738.113C29.3278 732.299 29.7944 724.26 30.4583 715.396C31.1222 706.532 31.8399 698.529 32.3782 692.733C32.6294 690.024 32.8627 687.727 33.0242 685.861C33.078 685.161 33.1318 684.551 33.1857 683.995C33.2574 683.564 33.2754 683.331 33.2574 683.331Z" fill="#193546"/>
<path d="M34.9625 723.47C34.8907 723.578 35.5008 724.152 36.3262 724.762C37.1516 725.372 37.8873 725.803 37.9591 725.695C38.0309 725.588 37.4208 725.013 36.5954 724.403C35.77 723.775 35.0343 723.363 34.9625 723.47Z" fill="#193546"/>
<path d="M36.8104 720.528C36.7027 720.6 37.0616 721.228 37.5999 721.928C38.1382 722.628 38.6586 723.13 38.7483 723.041C38.856 722.969 38.4971 722.341 37.9588 721.641C37.4205 720.941 36.9001 720.439 36.8104 720.528Z" fill="#193546"/>
<path d="M40.5246 718.841C40.399 718.823 40.2195 719.702 40.1298 720.797C40.0401 721.891 40.058 722.788 40.1836 722.788C40.3093 722.806 40.4887 721.927 40.5784 720.833C40.6682 719.756 40.6502 718.859 40.5246 718.841Z" fill="#193546"/>
<path d="M43.0904 718.357C42.9827 718.303 42.4803 719.236 42.283 720.51C42.0856 721.784 42.3009 722.824 42.4265 722.806C42.5521 722.789 42.5521 721.784 42.7495 720.582C42.911 719.38 43.198 718.411 43.0904 718.357Z" fill="#193546"/>
<path d="M38.1741 724.996C38.1203 724.996 37.9409 725.911 38.0127 727.436C38.0485 728.19 38.1562 729.087 38.3895 730.074C38.5151 730.559 38.6048 731.061 38.8919 731.599C39.0354 731.851 39.2328 732.138 39.6096 732.263C39.9685 732.389 40.3812 732.227 40.6145 731.958C41.9961 729.715 40.8477 727.293 39.7173 726.342C39.1431 725.822 38.551 725.552 38.1562 725.427C37.7435 725.301 37.5102 725.283 37.5102 725.319C37.4743 725.409 38.4612 725.552 39.502 726.575C40.0223 727.078 40.4889 727.831 40.7042 728.746C40.9016 729.626 40.8657 730.846 40.2915 731.635C39.9685 731.994 39.5379 731.815 39.3046 731.366C39.0713 730.953 38.9637 730.415 38.8201 729.949C38.5689 728.998 38.4254 728.136 38.3536 727.401C38.1741 725.929 38.2459 724.996 38.1741 724.996Z" fill="#193546"/>
<path d="M37.9944 725.605C37.9585 725.641 38.5686 726.036 39.6632 726.018C40.2015 726 40.8475 725.856 41.4934 725.479C42.0676 725.084 42.8392 724.6 42.8751 723.541C42.8392 722.967 42.2291 722.644 41.8164 722.715C41.3858 722.733 41.009 722.895 40.7039 723.056C40.0759 723.38 39.5555 723.738 39.1428 724.097C38.3353 724.797 38.0124 725.39 38.0483 725.425C38.1021 725.479 38.5148 724.977 39.3402 724.367C39.7529 724.062 40.2553 723.738 40.8654 723.451C41.4037 723.146 42.3368 723.003 42.4086 723.613C42.4265 724.223 41.7805 724.797 41.2602 725.138C40.7039 725.479 40.1297 725.659 39.6273 725.713C38.6404 725.802 38.0303 725.533 37.9944 725.605Z" fill="#193546"/>
<path d="M43.5571 684.856C43.4674 684.856 43.575 685.951 43.2521 687.638C42.947 689.324 42.0678 691.621 40.2914 693.559C38.515 695.479 36.2721 696.537 34.6213 696.968C32.9526 697.435 31.858 697.399 31.8759 697.488C31.8759 697.524 32.1451 697.542 32.6475 697.542C33.132 697.542 33.8497 697.47 34.711 697.273C36.4336 696.896 38.7662 695.856 40.6323 693.864C42.4805 691.854 43.3418 689.432 43.575 687.691C43.7007 686.812 43.7186 686.095 43.6827 685.61C43.6289 685.126 43.575 684.856 43.5571 684.856Z" fill="#193546"/>
<path d="M59.0062 689.935C59.0242 689.81 55.5431 689.415 51.2546 689.038C46.9661 688.661 43.4851 688.464 43.4671 688.59C43.4492 688.715 46.9302 689.11 51.2187 689.487C55.5072 689.863 58.9883 690.061 59.0062 689.935Z" fill="#193546"/>
<path d="M34.9802 702.567C34.8546 702.549 34.2804 704.971 34.0292 708.04C33.778 711.108 33.9395 713.602 34.0651 713.602C34.1907 713.602 34.2266 711.126 34.4778 708.075C34.7469 705.043 35.1237 702.585 34.9802 702.567Z" fill="#193546"/>
<path d="M35.5363 695.155C35.4466 695.048 34.998 695.317 34.4059 695.532C33.8317 695.748 33.3113 695.838 33.3113 695.981C33.3113 696.107 33.9034 696.215 34.5673 695.963C35.2492 695.712 35.626 695.245 35.5363 695.155Z" fill="#193546"/>
<path d="M39.2328 692.608C39.143 692.518 38.7303 692.734 38.3176 693.093C37.8869 693.452 37.6178 693.829 37.6895 693.919C37.7793 694.008 38.192 693.793 38.6047 693.434C39.0354 693.075 39.3045 692.716 39.2328 692.608Z" fill="#193546"/>
<path d="M41.0989 688.731C40.9733 688.749 40.9374 689.252 40.7042 689.79C40.4888 690.328 40.1479 690.705 40.2197 690.812C40.2735 690.92 40.8477 690.633 41.1168 689.969C41.4219 689.306 41.2245 688.696 41.0989 688.731Z" fill="#193546"/>
<path d="M42.0679 685.951C41.9602 685.897 41.7449 686.094 41.6013 686.4C41.4578 686.705 41.4398 686.992 41.5475 687.046C41.6551 687.1 41.8705 686.902 42.014 686.597C42.1576 686.292 42.1755 686.005 42.0679 685.951Z" fill="#193546"/>
<path opacity="0.3" d="M44.562 684.982L42.4268 722.825L46.9844 723.094V684.856L44.562 684.982Z" fill="black"/>
<path d="M240.9 724.08L240.469 703.84L202.554 704.397L202.859 734.021L205.21 734.147C215.689 734.577 258.484 735.582 265.446 733.375C273.216 730.863 240.9 724.08 240.9 724.08Z" fill="#328ED4"/>
<g opacity="0.4">
<g opacity="0.4">
<path opacity="0.4" d="M256.691 727.956C256.691 727.956 268.031 731.042 266.649 732.926C265.268 734.811 221.97 735.403 202.842 734.003L202.896 733.16L253.407 732.891C253.407 732.891 254.484 728.082 256.691 727.956Z" fill="white"/>
</g>
</g>
<path d="M253.407 733.483C253.55 733.501 253.64 731.85 254.645 730.181C255.632 728.494 257.031 727.633 256.96 727.507C256.924 727.4 255.309 728.135 254.25 729.948C253.174 731.724 253.299 733.501 253.407 733.483Z" fill="#193546"/>
<path d="M242.138 727.956C242.246 728.027 242.766 727.364 243.305 726.484C243.843 725.605 244.202 724.834 244.094 724.78C243.986 724.708 243.466 725.372 242.91 726.251C242.389 727.112 242.031 727.884 242.138 727.956Z" fill="#193546"/>
<path d="M239.052 726.377C239.142 726.467 239.734 726.054 240.38 725.462C241.026 724.87 241.474 724.314 241.385 724.206C241.295 724.116 240.703 724.529 240.057 725.121C239.411 725.713 238.962 726.288 239.052 726.377Z" fill="#193546"/>
<path d="M237.061 722.824C237.061 722.95 237.94 723.057 239.034 723.057C240.129 723.057 241.008 722.95 241.008 722.824C241.008 722.698 240.129 722.59 239.034 722.59C237.94 722.59 237.061 722.698 237.061 722.824Z" fill="#193546"/>
<path d="M236.361 720.312C236.325 720.42 237.294 720.85 238.586 720.922C239.877 721.012 240.882 720.707 240.864 720.581C240.846 720.456 239.842 720.545 238.621 720.456C237.383 720.384 236.396 720.187 236.361 720.312Z" fill="#193546"/>
<path d="M243.376 724.637C243.376 724.69 244.309 724.798 245.817 724.583C246.57 724.475 247.449 724.296 248.4 723.973C248.867 723.793 249.369 723.667 249.872 723.344C250.105 723.183 250.374 722.95 250.464 722.573C250.554 722.214 250.356 721.801 250.087 721.604C247.736 720.437 245.422 721.765 244.578 722.986C244.112 723.614 243.897 724.206 243.807 724.619C243.717 725.031 243.717 725.283 243.753 725.283C243.843 725.318 243.897 724.314 244.83 723.183C245.296 722.627 245.978 722.088 246.893 721.801C247.754 721.532 248.975 721.442 249.8 721.963C250.195 722.25 250.051 722.699 249.621 722.968C249.226 723.237 248.705 723.398 248.257 723.578C247.342 723.901 246.48 724.134 245.763 724.26C244.309 724.547 243.376 724.547 243.376 724.637Z" fill="#193546"/>
<path d="M244.022 724.744C244.058 724.762 244.417 724.152 244.273 723.057C244.202 722.519 244.004 721.891 243.591 721.281C243.161 720.743 242.587 720.008 241.546 720.061C240.99 720.133 240.72 720.797 240.81 721.192C240.864 721.622 241.061 721.981 241.241 722.268C241.618 722.878 242.03 723.362 242.407 723.721C243.179 724.457 243.789 724.726 243.825 724.69C243.861 724.636 243.34 724.259 242.658 723.506C242.317 723.129 241.941 722.645 241.618 722.053C241.277 721.55 241.026 720.618 241.636 720.51C242.246 720.438 242.874 721.048 243.25 721.515C243.645 722.035 243.861 722.609 243.968 723.093C244.148 724.08 243.932 724.726 244.022 724.744Z" fill="#193546"/>
<path d="M202.932 722.753C202.95 722.842 204.008 722.627 205.731 722.806C207.435 722.968 209.804 723.632 211.885 725.247C213.967 726.862 215.187 728.979 215.779 730.594C216.389 732.209 216.443 733.304 216.533 733.286C216.569 733.286 216.569 733.016 216.515 732.514C216.461 732.03 216.335 731.312 216.066 730.468C215.546 728.8 214.308 726.539 212.155 724.87C209.983 723.201 207.507 722.555 205.749 722.483C204.87 722.43 204.152 722.483 203.667 722.573C203.201 722.645 202.932 722.735 202.932 722.753Z" fill="#193546"/>
<path d="M206.646 706.926C206.52 706.926 206.412 710.407 206.43 714.714C206.43 719.02 206.538 722.502 206.664 722.502C206.789 722.502 206.897 719.02 206.879 714.714C206.879 710.407 206.771 706.926 206.646 706.926Z" fill="#193546"/>
<path d="M211.042 726.395C210.952 726.485 211.204 726.88 211.598 727.275C211.993 727.669 212.388 727.903 212.478 727.813C212.567 727.723 212.316 727.328 211.921 726.934C211.527 726.539 211.132 726.305 211.042 726.395Z" fill="#193546"/>
<path d="M207.005 724.852C207.041 724.977 207.543 724.977 208.1 725.157C208.656 725.336 209.069 725.641 209.158 725.551C209.266 725.479 208.925 724.941 208.243 724.726C207.543 724.493 206.969 724.744 207.005 724.852Z" fill="#193546"/>
<path d="M204.152 724.134C204.116 724.26 204.331 724.439 204.636 724.565C204.959 724.69 205.246 724.672 205.282 724.565C205.318 724.439 205.103 724.26 204.798 724.134C204.475 724.027 204.187 724.027 204.152 724.134Z" fill="#193546"/>
<path opacity="0.3" d="M202.967 721.748L240.846 720.581L240.721 716.024L202.644 719.343L202.967 721.748Z" fill="black"/>
<path d="M122.024 585.233L241.851 583.6C241.851 583.6 282.224 587.063 273.647 618.285C267.026 642.401 258.969 676.548 245.458 718.356L197.782 718.841L217.538 633.86C214.667 633.896 181.884 634.973 181.884 634.973L122.024 585.233Z" fill="#193546"/>
<path d="M241.241 617.209C241.367 617.496 235.32 619.721 228.896 624.243C222.436 628.711 218.273 633.628 218.04 633.412C217.95 633.34 218.866 632.013 220.642 630.093C222.4 628.172 225.074 625.714 228.34 623.435C231.605 621.156 234.835 619.505 237.24 618.501C239.644 617.514 241.205 617.101 241.241 617.209Z" fill="#2D5F7C"/>
<path d="M232.789 629.984C232.843 630.254 229.416 631.241 225.181 632.461C220.947 633.681 217.519 634.686 217.43 634.417C217.34 634.166 220.642 632.73 224.912 631.51C229.165 630.272 232.736 629.715 232.789 629.984Z" fill="#2D5F7C"/>
<path d="M251.807 699.279L196.918 699.395L196.96 719.42L251.849 719.304L251.807 699.279Z" fill="#2D5F7C"/>
<path d="M162.828 685.161L162.792 685.197C162.792 685.197 60.7111 629.447 49.1375 611.306C37.2051 592.608 45.7282 575.042 45.7282 575.042L131.642 586.507L195.611 644.106L192.74 647.713C206.054 658.264 230.062 680.317 230.062 702.046C230.062 739.244 181.974 733.179 147.45 733.25C100.241 733.358 47.2893 733.573 47.2893 733.573L47.1637 682.865L162.828 685.161Z" fill="#193546"/>
<path d="M187.088 695.766C186.98 696.017 181.346 693.81 174.509 690.832C167.673 687.853 162.218 685.233 162.326 684.982C162.433 684.731 168.067 686.938 174.904 689.916C181.741 692.895 187.195 695.515 187.088 695.766Z" fill="#2D5F7C"/>
<path d="M179.049 683.331C179.067 683.6 175.066 683.959 170.113 684.121C165.179 684.282 161.159 684.192 161.159 683.923C161.159 683.654 165.143 683.295 170.095 683.134C175.03 682.972 179.049 683.062 179.049 683.331Z" fill="#2D5F7C"/>
<path d="M67.0094 680.855H46.9844V735.744H67.0094V680.855Z" fill="#2D5F7C"/>
<path d="M137.241 469.695C155.794 456.866 175.371 465.586 184.091 486.383C193.476 508.776 207.418 534.453 211.114 536.642C218.291 540.859 302.698 578.738 302.698 578.738L289.814 604.702C289.814 604.702 183.948 568.402 176.537 555.734C169.126 543.066 127.443 476.46 127.443 476.46L137.241 469.695Z" fill="#C8CDD1"/>
<path d="M309.552 613.01C309.552 611.861 309.05 612.704 310.934 611.538C314.756 609.17 312.154 606.819 312.154 606.819C312.154 606.819 311.293 605.796 311.472 605.114C311.741 604.038 312.8 604.594 312.8 604.594C316.604 605.366 317.591 603.481 317.107 601.92C316.622 600.395 313.966 598.637 313.446 597.775C312.926 596.914 314.72 597.165 314.72 597.165C314.72 597.165 319.852 597.829 321.198 595.909C322.543 594.007 321.898 593.325 320.229 592.159C319.296 591.495 308.853 587.673 308.87 585.394C308.87 583.115 312.746 582.685 315.994 580.98C319.242 579.276 324.033 574.467 321.969 572.834C319.906 571.201 318.416 572.78 315.312 574.951C312.19 577.122 302.698 578.719 302.698 578.719L289.456 604.522C289.456 604.522 302.231 613.62 304.008 614.732C304.008 614.75 309.552 617.926 309.552 613.01Z" fill="#C8CDD1"/>
<path d="M391.662 610.39C391.662 610.39 389.814 620.277 394.623 622.143C396.776 622.969 401.926 617.46 391.662 610.39Z" fill="#2D5F7C"/>
<path d="M393.743 607.986C393.743 607.986 398.732 612.741 401.603 610.677C402.895 609.744 401.656 604.738 393.743 607.986Z" fill="#2D5F7C"/>
<path d="M401.208 615.2C401.208 615.2 405.281 627.006 411.615 626.073C414.432 625.66 416.621 616.545 401.208 615.2Z" fill="#2D5F7C"/>
<path d="M313.356 631.206C313.158 631.044 293.097 615.182 306.304 596.341C318.38 579.116 341.294 590.743 341.527 590.869L340.648 592.555C340.594 592.52 335.121 589.72 328.339 588.967C319.403 587.962 312.512 590.815 307.883 597.436C302.769 604.703 302.32 612.329 306.537 620.081C309.731 625.93 314.486 629.663 314.522 629.698L313.356 631.206Z" fill="#193546"/>
<path d="M346.013 582.021L299.414 652.396L343.268 676.745L369.376 605.438L384.484 605.151L346.013 582.021Z" fill="#193546"/>
<path d="M343.268 676.746C343.106 676.835 341.922 674.036 339.141 670.107C336.378 666.195 331.641 661.351 325.217 657.816C318.757 654.371 312.082 653.097 307.327 652.487C302.536 651.895 299.54 652.074 299.522 651.895C299.522 651.841 300.257 651.715 301.621 651.644C302.985 651.572 304.959 651.572 307.381 651.787C312.208 652.236 319.008 653.402 325.665 656.937C332.251 660.561 337.042 665.621 339.697 669.694C341.043 671.74 341.958 673.498 342.514 674.736C343.089 676.01 343.322 676.728 343.268 676.746Z" fill="#2D5F7C"/>
<path d="M183.948 561.728C183.948 560.489 214.595 536.643 214.595 536.643C214.595 536.643 196.06 497.167 187.967 482.794L183.948 561.728Z" fill="#328ED4"/>
<path d="M187.985 482.795C187.985 482.795 164.21 442.906 127.443 476.479C103.453 498.388 64.3179 543.533 50.3399 561.226C47.1997 565.191 42.3012 571.22 45.7284 574.935C56.2074 586.275 84.7735 611.647 137.671 592.717L192.04 490.385L187.985 482.795Z" fill="#328ED4"/>
<path d="M157.499 463.81L164.192 452.846L198.428 480.084L192.04 490.366L157.499 463.81Z" fill="#328ED4"/>
<path d="M170.651 473.822C170.651 473.822 171.136 475.168 170.741 477.662C170.31 480.066 168.785 483.727 164.927 486.203C163.061 487.441 160.549 488.23 157.875 488.051C155.22 487.925 152.528 487.082 149.729 486.472C146.966 485.844 143.844 485.467 141.152 486.903C138.46 488.302 136.684 491.155 135.482 494.188C134.262 497.238 133.652 500.486 132.485 503.482C131.373 506.461 129.632 509.314 127.012 510.929C124.411 512.544 121.396 512.885 118.794 512.49C116.157 512.113 113.842 511.018 112.083 509.637C108.531 506.838 106.898 503.428 106.001 501.168C105.552 500.019 105.301 499.086 105.139 498.458C104.996 497.83 104.942 497.489 104.978 497.471C105.068 497.453 105.391 498.781 106.359 501.006C107.346 503.195 109.051 506.443 112.514 509.063C114.237 510.337 116.426 511.341 118.92 511.664C121.396 511.987 124.195 511.629 126.546 510.139C128.914 508.65 130.529 506.012 131.606 503.123C132.719 500.217 133.329 496.987 134.585 493.811C135.823 490.689 137.707 487.584 140.721 486.023C143.754 484.444 147.145 484.911 149.944 485.575C152.797 486.239 155.417 487.082 157.929 487.226C160.441 487.423 162.756 486.741 164.55 485.611C168.247 483.332 169.826 479.869 170.346 477.572C170.867 475.203 170.526 473.84 170.651 473.822Z" fill="#193546"/>
<path d="M80.4851 598.852C80.4492 598.852 80.4133 598.565 80.3774 597.991C80.3774 597.435 80.4313 596.574 80.826 595.551C81.5258 593.469 83.7867 590.975 87.2678 589.271C90.7488 587.404 95.4321 587.081 100.097 585.502C102.412 584.695 104.781 583.493 106.431 581.429C108.118 579.402 108.961 576.692 109.302 573.875C110.002 568.241 109.32 562.463 111.384 557.6C113.358 552.791 117.036 549.543 120.392 547.695C123.819 545.865 126.977 545.327 129.13 545.309C130.207 545.309 131.032 545.362 131.588 545.47C132.145 545.56 132.432 545.614 132.432 545.65C132.414 545.775 131.247 545.542 129.148 545.703C127.049 545.829 124.016 546.475 120.732 548.323C117.539 550.189 114.057 553.365 112.227 557.959C110.307 562.552 110.971 568.205 110.271 574.018C109.93 576.925 109.033 579.868 107.167 582.075C105.355 584.318 102.789 585.592 100.384 586.4C95.5218 587.979 90.9282 588.23 87.5549 589.934C84.1635 591.514 81.9385 593.81 81.167 595.73C80.3595 597.632 80.6286 598.87 80.4851 598.852Z" fill="#193546"/>
<path d="M76.0708 530.38C76.0529 530.344 76.3041 530.218 76.7886 529.985C77.273 529.752 78.0267 529.482 79.0136 529.267C80.9874 528.801 84.0736 528.603 87.5726 529.805C89.3131 530.416 91.1254 531.367 92.7762 532.802C94.3912 534.255 95.8446 536.175 96.7059 538.472C98.4823 542.994 98.2311 549.041 94.8039 553.689C91.3228 558.282 85.5988 560.238 80.7541 559.825C78.2958 559.646 76.0529 558.821 74.2047 557.672C72.3565 556.506 70.921 555.017 69.8624 553.527C67.7091 550.513 67.0273 547.498 66.9196 545.47C66.8479 544.448 66.9017 543.658 66.9735 543.138C67.0452 542.599 67.0991 542.33 67.135 542.33C67.2426 542.33 67.0632 543.461 67.2964 545.435C67.5297 547.39 68.3013 550.279 70.4186 553.114C72.4821 555.914 76.1426 558.641 80.8259 558.91C85.4015 559.269 90.7845 557.367 94.0143 553.096C97.1904 548.79 97.4954 543.084 95.8446 538.795C94.2476 534.381 90.6051 531.636 87.3394 530.451C84.0198 529.213 81.0412 529.285 79.1033 529.626C77.1295 529.985 76.1067 530.469 76.0708 530.38Z" fill="#193546"/>
<g opacity="0.3">
<path opacity="0.3" d="M187.895 557.761L187.913 494.098L197.782 549.902L187.895 557.761Z" fill="black"/>
</g>
<g opacity="0.3">
<path opacity="0.3" d="M137.886 502.944L123.801 567.308H137.886L137.671 592.715L141.493 584.982L140.74 559.915H131.445L137.886 502.944Z" fill="black"/>
</g>
<g opacity="0.3">
<path opacity="0.3" d="M158.952 465.209C158.952 465.209 185.904 488.518 186.298 488.141C186.693 487.764 197.064 480.264 197.064 480.264L187.572 485.593L158.952 465.209Z" fill="black"/>
</g>
<path d="M157.212 463.666C157.248 463.612 157.858 463.953 158.934 464.599C159.993 465.263 161.518 466.25 163.367 467.524C167.063 470.054 172.051 473.75 177.542 477.823C181.274 480.587 184.791 483.135 187.806 485.216L187.357 485.198C190.551 483.458 193.225 482.04 195.109 481.071C196.993 480.102 198.087 479.6 198.123 479.672C198.159 479.743 197.154 480.407 195.342 481.502C193.53 482.596 190.91 484.122 187.77 485.934L187.554 486.059L187.339 485.916C184.271 483.906 180.7 481.394 176.968 478.613C171.603 474.576 166.758 470.933 162.972 468.08C161.321 466.842 159.903 465.783 158.719 464.904C157.714 464.169 157.176 463.72 157.212 463.666Z" fill="#193546"/>
<path d="M318.649 591.819C315.832 590.527 312.746 589.845 309.642 589.809C308.87 589.792 308.081 589.827 307.381 590.132C306.681 590.437 306.071 591.065 305.981 591.819C305.892 592.644 306.43 593.434 307.13 593.883C307.829 594.331 308.655 594.511 309.462 594.69C311.939 595.21 314.397 595.713 316.873 596.233" fill="#C8CDD1"/>
<path d="M311.652 605.977C308.834 604.685 305.748 604.003 302.644 603.967C301.872 603.967 301.083 603.985 300.383 604.29C299.683 604.595 299.073 605.223 298.983 605.977C298.894 606.802 299.432 607.591 300.132 608.04C300.832 608.489 301.657 608.668 302.464 608.848C304.941 609.368 307.399 609.87 309.875 610.391" fill="#C8CDD1"/>
<path d="M313.948 598.943C311.131 597.651 308.045 596.969 304.94 596.933C304.169 596.916 303.379 596.951 302.679 597.256C301.98 597.562 301.37 598.19 301.28 598.943C301.19 599.769 301.728 600.558 302.428 601.007C303.128 601.455 303.953 601.635 304.761 601.814C307.237 602.334 309.695 602.837 312.172 603.357" fill="#C8CDD1"/>
<path d="M317.626 597.094C317.59 597.22 316.011 596.951 313.445 596.395C312.046 596.072 310.557 595.731 308.96 595.354C308.116 595.139 307.237 594.941 306.322 594.69C305.425 594.457 304.115 593.847 303.971 592.411C303.918 591.694 304.348 591.083 304.815 590.725C305.299 590.348 305.837 590.204 306.358 590.115C307.417 589.989 308.26 590.061 309.157 590.079C310.898 590.15 312.459 590.384 313.751 590.599C316.334 591.065 317.895 591.371 317.895 591.496C317.878 591.64 316.245 591.586 313.661 591.281C312.369 591.155 310.826 590.994 309.121 590.976C308.296 590.976 307.327 590.922 306.501 591.048C305.676 591.155 304.904 591.694 304.958 592.322C305.012 593.003 305.766 593.506 306.609 593.739C307.506 593.99 308.368 594.223 309.211 594.439C310.772 594.869 312.243 595.3 313.625 595.677C316.101 596.43 317.644 596.951 317.626 597.094Z" fill="#A5AFB4"/>
<path d="M313.015 603.714C312.979 603.84 311.4 603.571 308.834 603.015C307.435 602.692 305.946 602.351 304.349 601.974C303.505 601.759 302.626 601.561 301.711 601.31C300.814 601.077 299.504 600.467 299.36 599.031C299.306 598.314 299.737 597.704 300.204 597.345C300.688 596.968 301.226 596.824 301.747 596.735C302.805 596.609 303.649 596.681 304.546 596.699C306.286 596.771 307.848 597.004 309.139 597.219C311.723 597.686 313.284 597.991 313.284 598.116C313.266 598.26 311.634 598.206 309.05 597.901C307.758 597.775 306.215 597.614 304.51 597.596C303.685 597.596 302.716 597.542 301.89 597.668C301.065 597.775 300.293 598.314 300.347 598.942C300.401 599.623 301.155 600.126 301.998 600.359C302.895 600.61 303.756 600.844 304.6 601.059C306.161 601.49 307.632 601.92 309.014 602.297C311.508 603.051 313.051 603.589 313.015 603.714Z" fill="#A5AFB4"/>
<path d="M310.593 610.713C310.557 610.839 308.978 610.569 306.412 610.013C305.012 609.69 303.523 609.349 301.926 608.973C301.083 608.757 300.203 608.56 299.288 608.309C298.391 608.075 297.081 607.465 296.938 606.03C296.884 605.312 297.314 604.702 297.781 604.343C298.265 603.966 298.804 603.823 299.324 603.733C300.383 603.608 301.226 603.679 302.123 603.697C303.864 603.769 305.425 604.002 306.717 604.218C309.301 604.684 310.862 604.989 310.862 605.115C310.844 605.258 309.211 605.205 306.627 604.899C305.335 604.774 303.792 604.63 302.087 604.594C301.262 604.594 300.293 604.541 299.468 604.666C298.642 604.774 297.871 605.312 297.925 605.94C297.978 606.622 298.732 607.124 299.575 607.358C300.473 607.609 301.334 607.842 302.177 608.057C303.738 608.488 305.21 608.919 306.591 609.296C309.085 610.067 310.611 610.587 310.593 610.713Z" fill="#A5AFB4"/>
<path d="M229.918 672.295L236.396 675.004C236.396 675.004 240.056 677.265 247.198 679.759C249.046 680.405 251.002 680.71 252.976 680.71C255.362 680.692 258.52 680.549 260.225 679.939C262.342 679.167 264.28 681.374 263.15 683.061C262.019 684.748 256.241 687.009 249.028 686.399C241.815 685.788 250.015 693.684 252.958 696.626C255.901 699.551 264.549 709.061 264.37 710.676C264.101 713.045 261.499 713.188 258.646 710.192C255.739 707.159 246.57 698.815 245.081 700.43C243.627 702.027 258.772 716.759 258.772 716.759C258.772 716.759 262.522 719.379 260.871 721.317C257.91 724.798 242.963 707.967 241.582 706.334C240.613 705.203 238.962 706.908 240.056 708.074C241.187 709.277 255.506 722.411 252.527 726C250.248 728.745 240.092 712.255 235.624 711.179C231.138 710.102 244.578 722.896 242.299 725.426C241.438 726.377 240.684 726.951 234.009 718.499C227.191 709.833 212.531 683.348 212.531 683.348L230.349 672.349" fill="#C8CDD1"/>
<path d="M186.621 500.377C186.621 500.377 181.059 590.795 185.491 597.829C189.923 604.88 243.951 678.377 243.951 678.377L220.032 696.087C220.032 696.087 142.803 615.108 142.049 600.448C141.314 585.789 139.143 500.377 139.143 500.377H186.621Z" fill="#C8CDD1"/>
<path d="M150.142 607.285C150.142 607.339 149.693 607.393 148.904 607.213C148.132 607.016 147.02 606.495 146.069 605.383C145.1 604.306 144.418 602.458 144.831 600.502C145.171 598.6 146.661 596.554 148.94 595.944C150.052 595.639 151.272 595.711 152.277 596.231C153.264 596.752 154.018 597.613 154.341 598.618C155.005 600.717 153.497 602.655 151.936 602.907C150.285 603.176 149.245 602.027 148.958 601.31C148.635 600.52 148.85 600.036 148.886 600.071C148.976 600.071 148.922 600.52 149.298 601.13C149.639 601.704 150.608 602.512 151.793 602.225C152.923 601.974 154.036 600.394 153.479 598.905C153.228 598.169 152.618 597.488 151.846 597.093C151.075 596.698 150.106 596.644 149.209 596.895C147.343 597.398 146.069 599.049 145.728 600.682C145.333 602.35 145.835 603.912 146.625 604.934C148.276 607.034 150.232 607.106 150.142 607.285Z" fill="#A5AFB4"/>
<path d="M138.137 497.004L132.934 559.627L187.985 557.994C187.985 557.994 189.312 507.106 187.644 490.257L138.137 497.004Z" fill="#328ED4"/>
<path d="M187.984 557.994C187.984 558.03 187.59 558.065 186.854 558.119C186.011 558.173 184.934 558.245 183.606 558.317C180.646 558.46 176.572 558.64 171.584 558.873C161.285 559.25 147.235 559.77 131.534 560.344L130.96 560.362L131.032 559.788C131.157 558.747 131.301 557.635 131.426 556.504C133.49 540.176 135.356 525.39 136.72 514.534C137.438 509.259 138.012 504.953 138.442 501.83C138.658 500.413 138.819 499.283 138.963 498.385C139.088 497.596 139.178 497.183 139.214 497.183C139.25 497.183 139.232 497.614 139.16 498.403C139.07 499.3 138.963 500.449 138.819 501.866C138.478 505.007 137.994 509.313 137.42 514.606C136.128 525.462 134.351 540.265 132.413 556.612C132.27 557.742 132.144 558.855 132.001 559.896L131.498 559.339C147.199 558.873 161.267 558.46 171.548 558.173C176.554 558.065 180.628 557.994 183.588 557.922C184.916 557.922 186.011 557.904 186.854 557.904C187.59 557.94 187.984 557.958 187.984 557.994Z" fill="#193546"/>
<path d="M187.984 557.994C187.715 557.994 187.41 542.832 187.32 524.135C187.231 505.42 187.374 490.257 187.643 490.257C187.913 490.257 188.218 505.42 188.307 524.117C188.397 542.832 188.254 557.994 187.984 557.994Z" fill="#193546"/>
<path d="M155.597 559.43C155.543 559.448 155.184 558.694 154.699 557.241C154.215 555.787 153.712 553.616 153.515 550.871C153.067 545.47 154.305 537.449 159.401 530.63C164.532 523.83 171.889 520.421 177.201 519.344C179.892 518.77 182.117 518.644 183.642 518.716C185.167 518.77 186.011 518.913 185.993 518.967C185.993 519.183 182.584 518.752 177.344 520.044C172.176 521.264 165.125 524.691 160.172 531.241C155.256 537.826 153.928 545.541 154.197 550.853C154.448 556.218 155.812 559.376 155.597 559.43Z" fill="#193546"/>
<path d="M567.329 358.642C565.229 361.155 561.946 362.5 558.68 362.698C555.414 362.895 552.148 362.052 549.134 360.778C543.302 358.319 538.206 353.098 534.456 348.002C540.377 344.216 548.47 345.31 552.543 346.118C558.985 347.41 569.823 353.636 567.329 358.642Z" fill="#2D5F7C"/>
<path d="M534.223 225.537C532.967 227.852 530.58 229.431 528.032 230.095C525.484 230.759 522.775 230.615 520.191 230.077C515.203 229.054 510.358 225.753 506.59 222.307C510.663 218.378 517.23 217.983 520.568 217.983C525.861 217.983 535.407 221.195 534.223 225.537Z" fill="#328ED4"/>
<path d="M393.474 360.688C396.65 361.441 399.323 363.792 400.956 366.627C402.589 369.462 403.271 372.764 403.468 376.029C403.863 382.345 401.459 389.236 398.534 394.852C392.505 391.227 389.903 383.494 388.827 379.492C387.122 373.176 387.893 360.688 393.474 360.688Z" fill="#2D5F7C"/>
<path d="M514.862 296.881C518.038 297.634 520.711 299.985 522.344 302.82C523.977 305.655 524.659 308.957 524.856 312.222C525.251 318.538 522.847 325.428 519.922 331.045C513.893 327.42 511.291 319.687 510.214 315.685C508.51 309.369 509.281 296.881 514.862 296.881Z" fill="#193546"/>
<path d="M556.616 266.555C556.616 266.52 557.029 266.484 557.837 266.466C558.734 266.448 559.9 266.412 561.354 266.376C562.933 266.358 564.799 266.322 566.952 266.304C568.029 266.268 569.249 266.322 570.505 266.537C571.743 266.807 573.035 267.201 574.291 267.865C576.785 269.193 579.171 271.454 580.499 274.558C581.163 276.101 581.576 277.824 581.612 279.636C581.63 281.377 581.755 283.207 581.396 285.109C580.715 288.877 578.238 292.484 574.596 294.565C572.784 295.606 570.666 296.198 568.495 296.324C566.36 296.396 564.26 296.342 562.089 296.36L562.43 296.216C560.977 297.67 559.434 299.213 557.89 300.774C555.899 302.748 553.943 304.703 552.095 306.552L551.251 307.395V306.211C551.251 304.111 551.251 302.03 551.251 299.984C551.251 298.961 551.251 297.957 551.251 296.952V296.198V295.821V295.642V295.552V295.534C552.202 296.467 551.503 295.785 551.7 296.001H551.646C551.126 295.965 550.623 295.965 550.121 295.893C546.048 295.427 542.495 293.094 540.378 290.061C539.319 288.536 538.601 286.85 538.224 285.145C537.83 283.422 537.901 281.718 537.901 280.157C537.919 276.891 539.032 273.912 540.754 271.759C542.423 269.57 544.576 268.152 546.568 267.363C548.578 266.573 550.462 266.412 551.951 266.43C553.351 266.466 554.481 266.502 555.36 266.52C556.222 266.502 556.616 266.537 556.616 266.555C556.616 266.591 556.204 266.609 555.432 266.645C554.553 266.663 553.422 266.699 552.023 266.735C550.552 266.771 548.757 266.986 546.819 267.793C544.917 268.601 542.89 269.983 541.346 272.1C539.749 274.181 538.745 277.016 538.763 280.103C538.781 281.7 538.727 283.315 539.104 284.912C539.462 286.509 540.162 288.088 541.167 289.505C543.159 292.34 546.496 294.494 550.3 294.906C550.767 294.96 551.251 294.96 551.736 294.996H551.772C551.987 295.211 551.323 294.511 552.274 295.48V295.498V295.588V295.768V296.144V296.898C552.274 297.903 552.274 298.908 552.274 299.93C552.274 301.976 552.274 304.057 552.274 306.157L551.431 305.816C553.279 303.968 555.235 302.012 557.209 300.02C558.77 298.459 560.313 296.916 561.766 295.48L561.91 295.337H562.107C564.26 295.319 566.414 295.373 568.459 295.319C570.469 295.211 572.443 294.673 574.129 293.704C577.539 291.784 579.871 288.429 580.535 284.912C580.894 283.189 580.786 281.359 580.786 279.636C580.75 277.95 580.392 276.317 579.781 274.863C578.543 271.921 576.318 269.749 573.968 268.439C572.784 267.793 571.545 267.381 570.379 267.112C569.177 266.878 568.046 266.807 566.952 266.825C564.799 266.789 562.915 266.771 561.354 266.753C559.9 266.717 558.734 266.681 557.837 266.663C557.047 266.627 556.616 266.591 556.616 266.555Z" fill="#193546"/>
<path d="M457.783 101.547C457.783 101.547 456.007 90.7813 442.908 91.0504C429.809 91.3196 429.271 107.702 431.173 113.695C433.075 119.706 456.814 147.519 456.814 147.519L479.746 119.922C485.057 113.534 486.206 104.472 482.133 97.223C480.177 93.7419 477.27 91.0325 472.964 91.0325C460.17 91.0504 457.783 101.547 457.783 101.547Z" fill="#328ED4"/>
<path d="M501.62 436.176C504.401 435.028 506.411 432.175 506.464 428.801C506.518 424.369 503.199 420.745 499.054 420.691C494.909 420.637 491.5 424.172 491.446 428.604C491.41 432.013 493.366 434.938 496.165 436.122C484.591 437.773 485.004 450.334 485.004 450.334L512.35 450.692C512.35 450.692 513.068 438.006 501.62 436.176Z" fill="#193546"/>
<path fill-rule="evenodd" clip-rule="evenodd" d="M538.906 498.53L525 517.586C524.803 517.855 524.857 518.249 525.126 518.447L532.196 523.614C532.465 523.812 532.859 523.758 533.057 523.489L547.196 504.128L552.328 507.878C552.579 508.058 552.938 508.022 553.154 507.788L557.909 502.316C558.142 502.046 558.106 501.634 557.801 501.418L552.185 497.309L555.199 493.164C555.899 492.195 557.263 491.98 558.232 492.698L562.179 495.587C562.448 495.784 562.843 495.73 563.04 495.461L567.293 489.63C567.49 489.36 567.437 488.966 567.167 488.768L560.492 483.888C556.581 481.035 551.072 481.878 548.219 485.808L544.11 491.424L540.575 488.84C540.306 488.643 539.911 488.697 539.714 488.966L535.461 494.797C535.264 495.066 535.318 495.461 535.587 495.659L539.122 498.242L538.906 498.53Z" fill="#193546"/>
<path d="M500.238 161.622C500.184 161.353 500.148 161.084 500.094 160.833C500.345 160.402 500.633 160.007 501.153 159.81C505.19 158.231 507.505 155.055 508.976 151.179C510.214 147.913 509.82 147.303 506.339 146.729C506.141 146.693 505.944 146.675 505.746 146.639C504.993 146.478 504.239 146.298 503.557 145.886C501.871 144.881 502.409 142.889 504.042 142.171C505.244 141.633 506.5 142.261 507.738 142.189C508.582 142.135 508.851 141.812 508.599 140.951C507.936 138.762 507.541 136.501 507.236 134.222C506.662 129.898 508.187 126.237 511.381 123.474C516.046 119.437 521.501 118.414 527.315 120.549C530.939 121.877 533.595 124.425 534.761 128.247C535.515 130.741 535.856 133.307 536.125 135.891C536.233 137.021 536.502 137.183 537.542 136.716C538.852 136.16 539.857 135.245 541.382 135.622C542.19 135.819 542.979 136.411 543.105 137.237C543.195 137.811 542.961 138.385 542.603 138.834C542.046 139.516 541.257 139.982 540.521 140.449C539.947 140.808 539.355 141.113 538.798 141.507C537.668 142.315 537.453 143.14 538.242 144.253C541.006 148.111 544.522 150.802 549.475 151.054C550.085 151.089 550.587 151.233 551.018 151.646C551.072 151.915 551.108 152.184 551.162 152.435C550.874 153.44 550.157 154.104 549.313 154.606C548.452 155.127 547.591 155.683 546.604 155.934C545.24 156.275 544.63 157.011 544.666 158.482C544.72 159.882 544.343 160.151 542.925 160.295C542.585 160.33 542.262 160.33 541.921 160.33C539.104 160.33 536.609 161.066 534.689 163.291C534.313 163.722 533.882 164.099 533.469 164.493C530.096 167.651 526.238 168.638 521.842 167.041C520.64 166.611 519.473 166.054 518.307 165.552C517.338 165.139 516.333 164.996 515.257 165.014C513.552 165.068 512.045 165.714 510.466 166.18C509.658 166.413 508.815 166.324 508.617 165.48C508.133 163.435 506.787 163.166 505.011 163.291C504.185 163.345 503.324 163.166 502.517 162.986C501.637 162.771 500.794 162.43 500.238 161.622Z" fill="#193546"/>
<path d="M379.514 466.483C381.254 465.765 382.493 464.007 382.511 461.908C382.546 459.162 380.483 456.902 377.899 456.866C375.315 456.83 373.198 459.037 373.18 461.782C373.162 463.899 374.382 465.712 376.105 466.447C368.909 467.47 369.179 475.275 369.179 475.275L386.153 475.49C386.171 475.508 386.62 467.613 379.514 466.483Z" fill="#193546"/>
<path d="M428.805 282.239C428.805 284.446 427.028 286.222 424.821 286.24C422.614 286.24 420.838 284.464 420.82 282.257C420.82 280.049 422.596 278.273 424.803 278.255C427.01 278.237 428.805 280.031 428.805 282.239Z" fill="#193546"/>
<path d="M439.966 274.236C439.966 276.443 438.189 278.219 435.982 278.237C433.775 278.237 431.999 276.461 431.981 274.254C431.981 272.046 433.757 270.27 435.964 270.252C438.171 270.252 439.966 272.046 439.966 274.236Z" fill="#193546"/>
<path d="M440.001 291.156C440.001 293.561 438.225 295.499 436.018 295.499C433.811 295.499 432.017 293.561 432.017 291.156C432.017 288.752 433.793 286.813 436 286.813C438.207 286.813 439.983 288.752 440.001 291.156Z" fill="#193546"/>
<path d="M434.834 290.653C434.654 290.905 432.017 289.397 428.912 287.28C425.808 285.163 423.44 283.26 423.601 283.009C423.78 282.758 426.418 284.265 429.522 286.383C432.627 288.482 434.995 290.402 434.834 290.653Z" fill="#193546"/>
<path d="M435.139 273.966C435.318 274.199 433.273 276.102 430.563 278.201C427.854 280.3 425.503 281.808 425.306 281.574C425.126 281.341 427.172 279.439 429.881 277.34C432.609 275.24 434.96 273.733 435.139 273.966Z" fill="#193546"/>
<path d="M402.822 182.688L405.603 183.1L412.888 175.923L413.678 170.612C413.678 170.612 418.02 171.007 416.477 177.879C414.934 184.769 415.741 183.065 415.741 183.065C415.741 183.065 424.875 184.464 425.521 185.343C425.987 185.971 424.946 194.692 424.336 199.411C424.031 201.779 422.183 203.771 419.797 203.986C419.456 204.022 419.115 204.022 418.792 203.969C416.513 203.628 405.137 200.111 405.137 200.111L400.328 199.393L402.822 182.688Z" fill="#193546"/>
<path d="M395.088 180.033L394.066 198.497L398.839 199.214L401.512 181.361L395.088 180.033Z" fill="#193546"/>
<path d="M381.883 257.494C381.883 257.494 376.93 250.855 368.228 254.426C359.991 257.817 361.535 267.256 361.535 267.256C361.535 267.256 344.811 266.968 339.231 256.382C339.231 256.382 334.763 265.031 341.743 270.88L337.831 269.768C337.831 269.768 336.162 279.242 345.098 280.91H340.917C340.917 280.91 342.586 289.559 350.122 289.003C350.122 289.003 349.279 294.027 335.624 293.74C335.624 293.74 356.259 307.682 373.539 291.784C387.481 278.955 384.969 265.3 384.969 265.3L390.262 259.45L385.238 260.85L388.306 255L381.883 257.494Z" fill="#2D5F7C"/>
<path d="M394.712 522C397.529 519.649 401.423 518.842 405.066 519.29C408.708 519.739 412.117 521.336 415.186 523.346C421.107 527.239 425.665 534.022 428.751 540.41C421.448 543.371 412.781 540.518 408.457 538.795C401.638 536.085 390.962 527.006 394.712 522Z" fill="#328ED4"/>
<path d="M442.227 539.495C438.243 538.544 435.085 535.099 434.044 531.134C432.986 527.168 433.883 522.844 436 519.345C436.987 517.73 438.387 516.151 440.271 515.882C442.029 515.631 443.788 516.653 444.81 518.089C445.833 519.524 446.246 521.319 446.407 523.077C446.982 529.142 446.407 535.099 442.227 539.495Z" fill="#328ED4"/>
<path d="M458.071 556.379C458.035 556.415 458.125 556.648 457.353 556.074C456.581 555.5 455.487 554.657 454.177 553.562C451.557 551.373 447.951 548.215 444.918 543.891C441.886 539.548 440.45 534.811 440.307 531.348C440.217 529.626 440.361 528.208 440.54 527.275C440.737 526.324 440.917 525.822 440.953 525.84C441.114 525.858 440.522 527.939 440.863 531.313C441.15 534.668 442.622 539.208 445.564 543.442C448.525 547.677 452.024 550.853 454.536 553.149C457.102 555.41 458.161 556.29 458.071 556.379Z" fill="#193546"/>
<path d="M457.712 556.667C456.187 555.86 453.71 554.442 451.306 553.168C446.318 550.53 439.427 546.888 431.748 542.958C424.068 539.047 417.088 535.584 412.01 533.107C409.569 531.905 407.56 530.9 406.017 530.147C404.599 529.447 403.827 529.016 403.863 528.98C403.881 528.927 404.707 529.25 406.16 529.878C407.613 530.506 409.695 531.439 412.261 532.605C417.393 534.956 424.427 538.347 432.106 542.259C439.786 546.188 446.659 549.902 451.575 552.684C454.033 554.065 456.51 555.59 457.873 556.398" fill="#193546"/>
<path d="M440.683 552.469C432.304 550.387 422.973 552.684 416.495 558.39C414.845 559.844 413.266 561.997 413.983 564.06C414.701 566.142 417.285 566.842 419.492 566.896C428.643 567.165 437.687 561.297 441.15 552.81" fill="#328ED4"/>
<path d="M423.96 558.874C423.924 558.838 424.301 558.497 425.037 557.923C425.396 557.636 425.844 557.295 426.4 556.954C426.957 556.613 427.567 556.182 428.32 555.823C429.756 555.034 431.586 554.28 433.668 553.634C435.767 553.042 438.135 552.576 440.648 552.432C443.178 552.306 445.582 552.504 447.735 552.863C449.889 553.275 451.773 553.814 453.298 554.442C454.069 554.711 454.733 555.07 455.325 555.357C455.918 555.626 456.402 555.913 456.797 556.164C457.586 556.649 457.999 556.936 457.963 556.99C457.891 557.133 456.151 556.057 453.1 554.98C451.575 554.424 449.709 553.939 447.61 553.58C445.492 553.275 443.16 553.096 440.701 553.222C438.243 553.365 435.928 553.796 433.865 554.334C431.819 554.926 430.007 555.608 428.554 556.326C425.647 557.761 424.05 559 423.96 558.874Z" fill="#193546"/>
<path d="M457.856 668.419C457.587 668.419 457.353 551.804 457.353 407.987C457.353 264.116 457.569 147.537 457.856 147.537C458.125 147.537 458.358 264.116 458.358 407.987C458.358 551.804 458.125 668.419 457.856 668.419Z" fill="#193546"/>
<path d="M546.156 449.15C546.174 449.186 545.869 449.365 545.259 449.688C544.559 450.047 543.662 450.514 542.603 451.052C540.145 452.254 536.789 453.905 532.716 455.915C524.372 460.006 512.799 465.604 500.364 472.387C487.893 479.134 477.001 485.952 469.501 491.425C467.599 492.753 465.948 494.045 464.495 495.193C463.023 496.306 461.785 497.292 460.816 498.172C459.883 498.943 459.13 499.571 458.52 500.092C457.981 500.522 457.694 500.738 457.676 500.72C457.658 500.702 457.892 500.433 458.394 499.948C458.968 499.392 459.686 498.71 460.565 497.885C461.498 496.969 462.7 495.929 464.154 494.78C465.571 493.596 467.204 492.25 469.088 490.887C476.517 485.252 487.391 478.308 499.897 471.543C512.368 464.743 523.996 459.234 532.429 455.304C536.556 453.42 539.947 451.859 542.442 450.729C543.554 450.244 544.451 449.85 545.187 449.527C545.815 449.24 546.156 449.132 546.156 449.15Z" fill="#193546"/>
<path d="M544.972 312.312C545.133 312.527 525.718 327.331 501.602 345.346C477.486 363.379 457.802 377.824 457.64 377.59C457.479 377.375 476.894 362.572 501.01 344.538C525.126 326.523 544.81 312.097 544.972 312.312Z" fill="#193546"/>
<path d="M458.142 351.034C458.106 351.088 457.012 350.568 455.056 349.581C453.1 348.594 450.301 347.122 446.874 345.238C440.001 341.488 430.635 336.087 420.533 329.735C410.43 323.365 401.512 317.264 395.16 312.688C391.984 310.41 389.436 308.526 387.714 307.18C385.973 305.852 385.04 305.08 385.076 305.026C385.112 304.973 386.135 305.637 387.929 306.857C389.867 308.185 392.433 309.961 395.555 312.096C401.997 316.51 410.969 322.522 421.053 328.874C431.137 335.226 440.432 340.699 447.197 344.61C450.48 346.494 453.19 348.055 455.217 349.222C457.137 350.352 458.178 350.98 458.142 351.034Z" fill="#193546"/>
<path d="M458.358 459.001C458.34 459.037 457.945 458.803 457.192 458.337C456.366 457.816 455.29 457.135 453.962 456.273C451.073 454.407 447.054 451.823 442.119 448.647C432.107 442.206 418.218 433.431 402.679 424.065C387.122 414.698 372.875 406.516 362.504 400.666C357.39 397.795 353.227 395.445 350.212 393.758C348.831 392.969 347.736 392.341 346.893 391.856C346.139 391.408 345.744 391.156 345.762 391.138C345.78 391.103 346.193 391.3 346.982 391.677C347.844 392.125 348.992 392.7 350.392 393.417C353.352 394.942 357.605 397.203 362.827 400.038C373.288 405.727 387.607 413.819 403.164 423.185C418.721 432.57 432.573 441.434 442.478 448.037C447.43 451.321 451.414 454.03 454.159 455.932C455.451 456.847 456.492 457.583 457.299 458.139C458.017 458.678 458.376 458.965 458.358 459.001Z" fill="#193546"/>
<path d="M513.822 579.204C513.929 579.455 511.955 580.083 492.702 587.925C473.449 595.784 457.766 601.939 457.658 601.688C457.551 601.436 473.072 594.869 492.325 587.01C511.597 579.168 513.732 578.953 513.822 579.204Z" fill="#193546"/>
<path d="M415.168 430.955C415.114 430.991 414.576 430.291 413.661 428.963C412.745 427.653 411.489 425.715 410.018 423.257C407.075 418.359 403.379 411.325 400.4 403.088C397.44 394.852 395.861 387.047 395.161 381.359C394.82 378.524 394.605 376.209 394.569 374.612C394.497 373.015 394.497 372.136 394.569 372.118C394.64 372.118 394.766 372.997 394.963 374.576C395.125 376.155 395.43 378.452 395.879 381.251C396.758 386.867 398.427 394.565 401.351 402.748C404.294 410.912 407.883 417.928 410.646 422.898C412.046 425.375 413.194 427.384 414.019 428.748C414.809 430.13 415.222 430.919 415.168 430.955Z" fill="#193546"/>
<path d="M412.566 399.535C412.853 399.678 410.179 404.057 409.193 410.14C408.116 416.223 409.193 421.229 408.87 421.265C408.654 421.373 407.111 416.276 408.206 409.96C409.246 403.662 412.386 399.355 412.566 399.535Z" fill="#193546"/>
<path d="M386.171 459.557C386.117 459.521 386.548 458.911 387.373 457.852C387.768 457.314 388.288 456.668 388.97 455.986C389.634 455.286 390.334 454.461 391.267 453.671C393.007 452.002 395.286 450.244 397.978 448.521C400.705 446.853 403.845 445.256 407.326 443.999C410.807 442.779 414.271 442.044 417.429 441.613C420.605 441.254 423.494 441.182 425.898 441.38C427.1 441.416 428.177 441.613 429.128 441.739C430.079 441.846 430.886 442.026 431.532 442.187C432.842 442.492 433.56 442.69 433.542 442.761C433.506 442.959 430.599 442.259 425.862 442.097C423.494 441.99 420.658 442.133 417.554 442.528C414.45 442.995 411.077 443.748 407.667 444.933C404.258 446.171 401.172 447.696 398.48 449.293C395.825 450.944 393.528 452.613 391.751 454.192C388.145 457.314 386.332 459.682 386.171 459.557Z" fill="#193546"/>
<path d="M554.105 354.444C554.015 354.623 550.857 352.99 545.438 351.142C542.747 350.209 539.445 349.294 535.749 348.523C532.052 347.805 527.925 347.213 523.583 346.997C519.223 346.818 515.078 346.997 511.31 347.374C507.559 347.805 504.204 348.397 501.423 349.079C495.86 350.407 492.541 351.734 492.487 351.555C492.469 351.483 493.276 351.124 494.766 350.532C495.501 350.227 496.434 349.868 497.529 349.527C498.624 349.186 499.844 348.738 501.261 348.415C504.042 347.643 507.434 346.979 511.22 346.495C515.024 346.064 519.223 345.849 523.637 346.046C528.051 346.28 532.214 346.89 535.946 347.679C539.678 348.523 542.98 349.509 545.672 350.532C547.035 350.999 548.22 351.555 549.278 352.004C550.337 352.434 551.216 352.883 551.934 353.26C553.369 353.959 554.141 354.39 554.105 354.444Z" fill="#193546"/>
<path d="M498.264 440.931C498.336 440.931 498.372 441.523 498.372 442.582C498.39 443.641 498.318 445.184 498.157 447.068C497.834 450.836 496.955 456.04 495.178 461.566C493.402 467.093 491.087 471.83 489.149 475.096C488.18 476.728 487.355 478.02 486.727 478.864C486.099 479.725 485.74 480.174 485.668 480.138C485.543 480.048 486.781 478.074 488.539 474.755C490.298 471.435 492.469 466.716 494.227 461.261C495.968 455.806 496.955 450.71 497.457 446.978C497.959 443.264 498.103 440.931 498.264 440.931Z" fill="#193546"/>
<path d="M523.941 198.191C524.12 198.407 509.461 210.698 491.212 225.645C472.964 240.592 458.035 252.542 457.855 252.327C457.676 252.112 472.336 239.82 490.584 224.873C508.833 209.944 523.762 197.994 523.941 198.191Z" fill="#193546"/>
<path d="M529.307 225.752C529.235 225.932 526.866 224.927 522.865 223.994C520.873 223.509 518.451 223.114 515.759 222.863C513.068 222.666 510.071 222.612 506.967 222.881C503.863 223.186 500.938 223.76 498.318 224.46C495.716 225.196 493.402 226.021 491.536 226.865C487.785 228.515 485.632 229.915 485.525 229.771C485.489 229.718 485.991 229.323 486.96 228.677C487.911 227.995 489.364 227.152 491.231 226.237C493.097 225.304 495.411 224.388 498.049 223.599C500.705 222.845 503.683 222.217 506.859 221.912C510.035 221.643 513.086 221.715 515.831 221.966C518.576 222.271 521.017 222.738 523.026 223.33C525.036 223.886 526.615 224.46 527.674 224.945C528.768 225.393 529.343 225.68 529.307 225.752Z" fill="#193546"/>
<path d="M553.71 562.875C553.638 555.931 547.932 550.369 540.988 550.441L508.367 550.799C501.422 550.871 495.86 556.577 495.932 563.521L496.111 578.809C496.183 585.753 501.889 591.316 508.833 591.244L541.454 590.885C548.398 590.813 553.961 585.107 553.889 578.163L553.71 562.875ZM533.218 571.506L520.281 578.791C519.725 579.096 519.204 578.702 519.222 580.317L519.061 565.675C519.025 562.768 519.545 562.355 520.119 562.678L533.308 570.035C533.882 570.358 533.792 571.183 533.218 571.506Z" fill="#328ED4"/>
<path d="M337.472 363.9C335.947 363.9 334.727 365.138 334.727 366.645C334.727 368.17 335.965 369.391 337.472 369.391C338.997 369.391 340.218 368.152 340.218 366.645C340.218 365.138 338.979 363.9 337.472 363.9ZM325.253 367.435C318.883 367.435 313.715 372.62 313.715 378.972C313.715 385.342 318.901 390.51 325.253 390.51C331.623 390.51 336.79 385.325 336.79 378.972C336.79 372.602 331.623 367.435 325.253 367.435ZM325.253 386.365C321.179 386.365 317.86 383.046 317.86 378.972C317.86 374.899 321.179 371.58 325.253 371.58C329.326 371.58 332.645 374.899 332.645 378.972C332.645 383.046 329.326 386.365 325.253 386.365ZM348.543 369.373C348.543 361.603 342.245 355.305 334.476 355.305H315.886C308.117 355.305 301.818 361.603 301.818 369.373V387.944C301.818 395.714 308.117 402.012 315.886 402.012H334.458C342.227 402.012 348.525 395.714 348.525 387.944V369.373H348.543ZM344.129 387.962C344.129 393.309 339.805 397.634 334.458 397.634H315.886C310.539 397.634 306.215 393.309 306.215 387.962V369.391C306.215 364.043 310.539 359.719 315.886 359.719H334.458C339.805 359.719 344.129 364.043 344.129 369.391V387.962Z" fill="#328ED4"/>
<path d="M421.341 657.923L434.206 734.56H483.658L495.86 657.923H460.655H421.341Z" fill="#193546"/>
<path d="M495.86 657.923H421.341V671.972H495.86V657.923Z" fill="#193546"/>
<path d="M423.691 671.972H493.617L492.432 679.491L423.691 671.972Z" fill="#2D5F7C"/>
</g>
<defs>
<filter id="filter0_d" x="0.38623" y="0.561279" width="723.05" height="755.047" filterUnits="userSpaceOnUse" color-interpolation-filters="sRGB">
<feFlood flood-opacity="0" result="BackgroundImageFix"/>
<feColorMatrix in="SourceAlpha" type="matrix" values="0 0 0 0 0 0 0 0 0 0 0 0 0 0 0 0 0 0 127 0"/>
<feOffset dy="4"/>
<feGaussianBlur stdDeviation="2"/>
<feColorMatrix type="matrix" values="0 0 0 0 0 0 0 0 0 0 0 0 0 0 0 0 0 0 0.25 0"/>
<feBlend mode="normal" in2="BackgroundImageFix" result="effect1_dropShadow"/>
<feBlend mode="normal" in="SourceGraphic" in2="effect1_dropShadow" result="shape"/>
</filter>
</defs>
</svg>
